<svg width="20" height="17" viewBox="0 0 20 17" fill="none" xmlns="http://www.w3.org/2000/svg">
<path d="M1.05263 0C0.471289 0 0 0.471263 0 1.05263C0 1.634 0.471289 2.10526 1.05263 2.10526H18.9474C19.5287 2.10526 20 1.634 20 1.05263C20 0.471263 19.5287 0 18.9474 0H1.05263ZM1.05263 7.10526C0.471289 7.10526 0 7.57653 0 8.1579C0 8.73926 0.471289 9.21053 1.05263 9.21053H18.9474C19.5287 9.21053 20 8.73926 20 8.1579C20 7.57653 19.5287 7.10526 18.9474 7.10526H1.05263ZM1.05263 14.2105C0.471289 14.2105 0 14.6818 0 15.2632C0 15.8445 0.471289 16.3158 1.05263 16.3158H18.9474C19.5287 16.3158 20 15.8445 20 15.2632C20 14.6818 19.5287 14.2105 18.9474 14.2105H1.05263Z" fill="#E45363"/>
</svg>
