<svg width="20" height="20" viewBox="0 0 20 20" fill="none" xmlns="http://www.w3.org/2000/svg">
<path d="M0.952381 17.1428C0.426405 17.6688 0.426381 18.5216 0.952381 19.0476C1.47838 19.5736 2.33117 19.5736 2.85714 19.0476L19.0476 2.85714C19.5736 2.33117 19.5736 1.47838 19.0476 0.952382C18.5216 0.426382 17.6688 0.426404 17.1428 0.952381L0.952381 17.1428Z" fill="white"/>
<path d="M2.85714 0.952381C2.33116 0.426405 1.47837 0.426381 0.952374 0.952381C0.426374 1.47838 0.426398 2.33117 0.952374 2.85714L17.1428 19.0476C17.6688 19.5736 18.5216 19.5736 19.0476 19.0476C19.5736 18.5216 19.5736 17.6688 19.0476 17.1428L2.85714 0.952381Z" fill="white"/>
</svg>
