<svg width="18" height="24" viewBox="0 0 18 24" fill="none" xmlns="http://www.w3.org/2000/svg">
<path d="M9.09181 0C4.07895 0.0201358 0.0201358 4.07895 0 9.09181C0 10.0957 0.162046 11.0929 0.479425 12.0451C0.71626 12.6932 1.4191 13.0423 2.07879 12.8419C2.71642 12.5974 3.05489 11.9003 2.85162 11.2483C2.58218 10.5061 2.46233 9.7189 2.4978 8.93072C2.60711 5.31011 5.63036 2.46328 9.25098 2.57259C12.8716 2.6819 15.7184 5.70515 15.6091 9.32577C15.5065 12.7153 12.8371 15.4682 9.45138 15.6743C9.45138 15.6743 8.17515 15.752 7.54039 15.8296C7.30643 15.8632 7.07439 15.9092 6.84523 15.9677C6.81263 16.0013 6.75989 16.0013 6.72633 15.9687L6.72537 15.9677C6.70236 15.938 6.70236 15.8958 6.72537 15.8661L6.92289 14.7883L8.12145 9.39768C8.26528 8.72457 7.83668 8.06201 7.16356 7.91818C6.49045 7.77435 5.82789 8.20296 5.68406 8.87607C5.68406 8.87607 2.8334 22.0708 2.8334 22.1906C2.6704 22.8321 3.05777 23.4841 3.69924 23.6471C3.70595 23.6491 3.71362 23.651 3.72034 23.6519H3.7865C4.42701 23.8178 5.08094 23.4324 5.24586 22.7918C5.24874 22.7813 5.25162 22.7708 5.25354 22.7592C5.25162 22.7391 5.25162 22.719 5.25354 22.6998C5.28901 22.5445 5.64858 20.7888 5.64858 20.7888C5.92089 19.4637 6.98905 18.4483 8.32569 18.2431C8.60088 18.2009 9.75725 18.1232 9.75725 18.1232C14.7509 17.6256 18.3955 13.1736 17.8969 8.17994C17.4424 3.62541 13.6694 0.118897 9.09181 0Z" fill="#1E1E1E"/>
<path d="M9.64336 20.9638C8.82353 20.7931 8.02191 21.3195 7.85123 22.1384C7.84932 22.146 7.84836 22.1537 7.84644 22.1614C7.66905 22.9755 8.18492 23.7799 8.99996 23.9573C9.00092 23.9573 9.00187 23.9573 9.00283 23.9583H9.04502C9.8428 24.151 10.6454 23.6601 10.8371 22.8633C10.8391 22.8575 10.84 22.8508 10.8419 22.8451V22.7616C10.9829 21.9389 10.4574 21.1498 9.64336 20.9638Z" fill="#E6007A"/>
</svg>
