<svg width="24" height="24" viewBox="0 0 24 24" fill="none" xmlns="http://www.w3.org/2000/svg">
<path fill-rule="evenodd" clip-rule="evenodd" d="M13.5001 19.5005L13.125 17.6255C14.8019 17.5625 16.3998 16.8967 17.6252 15.7504C17.6086 15.7548 17.5613 15.7707 17.487 15.7957C16.8564 16.0081 14.2813 16.8755 12 16.8755C9.71872 16.8755 7.14363 16.0081 6.51305 15.7957L6.51304 15.7957L6.51303 15.7957C6.43873 15.7707 6.39144 15.7548 6.37479 15.7504C7.60025 16.8967 9.1981 17.5625 10.875 17.6255L10.4999 19.5005C8.44121 19.4136 6.40664 19.0227 4.46222 18.3406C4.01828 18.1763 3.63782 17.8756 3.37545 17.4816C3.11309 17.0875 2.98232 16.6205 3.00192 16.1475C3.16683 12.9307 3.68406 9.74164 4.54435 6.63758C4.64659 6.26561 4.84273 5.92618 5.11396 5.65187C5.38518 5.37755 5.72237 5.17758 6.09316 5.07115C7.6594 4.69513 9.26422 4.50345 10.875 4.5C9.31949 4.85728 7.89233 5.63573 6.74981 6.75008C6.76884 6.74511 6.82253 6.72494 6.90671 6.69332L6.90671 6.69331C7.52078 6.46262 9.75735 5.6224 12 5.62504C13.8037 5.69988 15.582 6.07662 17.2611 6.73958C16.1155 5.62571 14.684 4.85058 13.125 4.5C14.7357 4.50296 16.3405 4.69413 17.9068 5.06965C18.2776 5.17608 18.6148 5.37605 18.886 5.65037C19.1573 5.92468 19.3534 6.26411 19.4556 6.63608C20.316 9.74063 20.8333 12.9302 20.9981 16.1475C21.0177 16.6205 20.8869 17.0875 20.6245 17.4816C20.3622 17.8756 19.9817 18.1763 19.5378 18.3406C17.5934 19.0227 15.5588 19.4136 13.5001 19.5005ZM8.24973 14.2504C9.28531 14.2504 10.1248 13.4109 10.1248 12.3753C10.1248 11.3397 9.28531 10.5002 8.24973 10.5002C7.21416 10.5002 6.37467 11.3397 6.37467 12.3753C6.37467 13.4109 7.21416 14.2504 8.24973 14.2504ZM17.6251 12.3753C17.6251 13.4109 16.7856 14.2504 15.75 14.2504C14.7144 14.2504 13.8749 13.4109 13.8749 12.3753C13.8749 11.3397 14.7144 10.5002 15.75 10.5002C16.7856 10.5002 17.6251 11.3397 17.6251 12.3753Z" fill="#FDFEF9"/>
</svg>
