<svg width="24" height="24" viewBox="0 0 24 24" fill="none" xmlns="http://www.w3.org/2000/svg">
<path d="M18.5778 17.8667C18.5778 18.2617 18.2617 18.5778 17.8667 18.5778H6.13333C5.73827 18.5778 5.42222 18.2617 5.42222 17.8667V6.13333C5.42222 5.73827 5.73827 5.42222 6.13333 5.42222H10.7556V4H6.13333C4.94815 4 4 4.94815 4 6.13333V17.8667C4 19.0519 4.94815 20 6.13333 20H17.8667C19.0519 20 20 19.0519 20 17.8667V13.2444H18.5778V17.8667Z" fill="#E45363"/>
<path d="M13.2427 4V5.42222H17.5686L11.9785 11.0123L12.9859 12.0198L18.576 6.42963V10.7556H19.9983V4H13.2427Z" fill="#E45363"/>
</svg>
