<svg width="24" height="24" viewBox="0 0 24 24" fill="none" xmlns="http://www.w3.org/2000/svg">
<path d="M19.28 12.2291C18.5521 13.8276 17.0573 14.425 14.6432 14.6726C15.4258 15.1645 15.6506 15.7821 15.6506 17.4534C15.6506 19.1246 15.6275 19.3491 15.6332 19.733C15.6417 20.3638 16.5669 20.6659 16.5318 20.8691C16.4967 21.0712 9.0136 21.0098 9.0136 20.883C9.0136 20.5622 9.91453 20.3745 9.91453 19.707C9.91453 19.1287 9.90229 17.641 9.90229 17.641C9.53752 17.6954 9.16909 17.7216 8.80029 17.7193C7.16695 17.7193 6.65052 16.678 6.40443 16.0956C6.08495 15.3366 5.67055 14.9799 5.22963 14.6951C4.95915 14.5197 4.89726 14.3133 5.20969 14.2546C6.65524 13.9821 7.02476 15.8924 7.99037 16.1973C8.6791 16.4143 9.56534 16.3201 10.0059 16.0357C10.0644 15.4526 10.4853 14.9474 10.8359 14.6813C8.38011 14.4462 6.92459 13.5942 6.16938 12.2241C6.15974 12.2241 5.81387 11.4795 5.84272 11.4795C5.60667 10.7844 5.50184 9.9882 5.50124 9.09745C5.50124 7.51836 5.99395 6.92282 6.65484 6.08066C6.14963 4.28001 6.83631 3.04944 6.83631 3.04944C6.83631 3.04944 7.89936 2.82908 9.90828 4.26691C10.9971 3.80066 13.9007 3.76244 15.2735 4.16348C16.1165 3.60709 17.6585 2.81698 18.2808 3.03807C18.4492 3.30929 18.8121 4.09853 18.5014 5.8349C18.7122 6.2154 19.8099 7.02612 19.8139 9.31947C19.7974 10.1648 19.7084 10.8788 19.5452 11.4824C19.5769 11.4825 19.3366 12.2303 19.28 12.2291Z" fill="white"/>
</svg>
