<svg width="60" height="30" viewBox="0 0 60 30" fill="none" xmlns="http://www.w3.org/2000/svg">
<rect x="0.5" y="0.5" width="59" height="29" rx="4.5" stroke="#2B6100"/>
<path d="M22.1904 15.0439L24.7881 10.0469H26.2783L22.8467 16.2881V20H21.5342V16.2881L18.1025 10.0469H19.6064L22.1904 15.0439ZM33.1895 15.3994H28.876V18.9268H33.8867V20H27.5635V10.0469H33.8184V11.127H28.876V14.3262H33.1895V15.3994ZM38.4531 15.5635C37.3275 15.2399 36.5072 14.8434 35.9922 14.374C35.4818 13.9001 35.2266 13.3167 35.2266 12.624C35.2266 11.8402 35.5387 11.193 36.1631 10.6826C36.792 10.1676 37.6077 9.91016 38.6104 9.91016C39.2939 9.91016 39.9023 10.0423 40.4355 10.3066C40.9733 10.571 41.388 10.9355 41.6797 11.4004C41.9759 11.8652 42.124 12.3734 42.124 12.9248H40.8047C40.8047 12.3232 40.6133 11.8516 40.2305 11.5098C39.8477 11.1634 39.3076 10.9902 38.6104 10.9902C37.9632 10.9902 37.4574 11.1338 37.0928 11.4209C36.7327 11.7035 36.5527 12.0977 36.5527 12.6035C36.5527 13.0091 36.7236 13.3532 37.0654 13.6357C37.4118 13.9137 37.9974 14.1689 38.8223 14.4014C39.6517 14.6338 40.2988 14.8913 40.7637 15.1738C41.2331 15.4518 41.5794 15.7777 41.8027 16.1514C42.0306 16.5251 42.1445 16.9648 42.1445 17.4707C42.1445 18.2773 41.8301 18.9245 41.2012 19.4121C40.5723 19.8952 39.7314 20.1367 38.6787 20.1367C37.9951 20.1367 37.3571 20.0068 36.7646 19.7471C36.1722 19.4827 35.7142 19.1227 35.3906 18.667C35.0716 18.2113 34.9121 17.694 34.9121 17.1152H36.2314C36.2314 17.7168 36.4525 18.193 36.8945 18.5439C37.3411 18.8903 37.9359 19.0635 38.6787 19.0635C39.3714 19.0635 39.9023 18.9222 40.2715 18.6396C40.6406 18.3571 40.8252 17.972 40.8252 17.4844C40.8252 16.9967 40.6543 16.6208 40.3125 16.3564C39.9707 16.0876 39.3509 15.8232 38.4531 15.5635Z" fill="#2B6100"/>
</svg>
