<svg width="14" height="14" viewBox="0 0 14 14" fill="none" xmlns="http://www.w3.org/2000/svg">
<path d="M7 0C10.866 0 14 3.13401 14 7C14 10.866 10.866 14 7 14C3.13401 14 0 10.866 0 7C0 3.13401 3.13401 0 7 0ZM7 1.4C3.90721 1.4 1.4 3.90721 1.4 7C1.4 10.0928 3.90721 12.6 7 12.6C10.0928 12.6 12.6 10.0928 12.6 7C12.6 3.90721 10.0928 1.4 7 1.4ZM7 5.6C7.35898 5.6 7.65485 5.75763 7.69529 5.96071L7.7 6.00833V10.0917C7.7 10.3172 7.3866 10.5 7 10.5C6.64102 10.5 6.34515 10.3424 6.30471 10.1393L6.3 10.0917V6.00833C6.3 5.78282 6.6134 5.6 7 5.6ZM7 3.5C7.3866 3.5 7.7 3.8134 7.7 4.2C7.7 4.5866 7.3866 4.9 7 4.9C6.6134 4.9 6.3 4.5866 6.3 4.2C6.3 3.8134 6.6134 3.5 7 3.5Z" fill="#E45363"/>
</svg>
