<svg width="24" height="24" viewBox="0 0 24 24" fill="none" xmlns="http://www.w3.org/2000/svg">
<g clip-path="url(#clip0)">
<path d="M24.0001 11.9999C24.0001 18.6274 18.6276 24 12.0003 24C5.3728 24 0.000244141 18.6274 0.000244141 11.9999C0.000244141 5.37255 5.3728 0 12.0003 0C18.6276 0 24.0001 5.37255 24.0001 11.9999Z" fill="#BEBEBE"/>
<path d="M21.4524 11.9992C21.4524 17.2192 17.2206 21.4515 12.0003 21.4515C6.78003 21.4515 2.54785 17.2192 2.54785 11.9992C2.54785 6.77882 6.78003 2.54688 12.0003 2.54688C17.2206 2.54688 21.4524 6.77874 21.4524 11.9992Z" fill="#BEBEBE"/>
<path d="M11.2988 15.2056L12.0782 12.2707L13.9235 11.5965L14.3825 9.87169L14.3668 9.8289L12.5504 10.4925L13.8592 5.56445H10.1475L8.43589 11.9957L7.00686 12.5177L6.53467 14.2959L7.96261 13.7743L6.95387 17.5645H16.8322L17.4655 15.2056H11.2988Z" fill="white"/>
</g>
<defs>
<clipPath id="clip0">
<rect width="24" height="24" fill="white"/>
</clipPath>
</defs>
</svg>
