<svg width="18" height="16" viewBox="0 0 18 16" fill="none" xmlns="http://www.w3.org/2000/svg">
<path d="M16.5637 2.35456L18 0.915562V0.600586H13.0245L9.4785 9.84408L5.44425 0.600586H0.22725V0.915562L1.905 3.03085C2.0685 3.18716 2.154 3.41574 2.13225 3.64588V11.9586C2.184 12.2579 2.091 12.5658 1.89 12.7833L0 15.1822V15.4932H5.35875V15.1783L3.46875 12.7833C3.264 12.565 3.16725 12.2626 3.2085 11.9586V4.76833L7.9125 15.4972H8.45925L12.504 4.76833V13.3151C12.504 13.5405 12.504 13.5869 12.363 13.7346L10.908 15.2089V15.5247H17.967V15.2097L16.5645 13.7715C16.4415 13.6741 16.3778 13.5107 16.404 13.352V2.774C16.3778 2.61455 16.4408 2.45117 16.5637 2.35456Z" fill="white"/>
</svg>
