<svg width="50" height="50" viewBox="0 0 50 50" fill="none" xmlns="http://www.w3.org/2000/svg">
<path d="M43.0163 5.57123L27.4011 17.1688L30.2888 10.3264L43.0163 5.57123Z" fill="#E2761B"/>
<path fill-rule="evenodd" clip-rule="evenodd" d="M43.0852 5.53372C43.1039 5.56806 43.0945 5.61091 43.0631 5.63421L27.4479 17.2318C27.4195 17.2529 27.3805 17.2524 27.3526 17.2305C27.3248 17.2087 27.3151 17.1709 27.3288 17.1383L30.2164 10.2959C30.2248 10.276 30.2411 10.2604 30.2613 10.2529L42.9888 5.49771C43.0254 5.48403 43.0665 5.49939 43.0852 5.53372ZM30.3479 10.3881L27.5852 16.9343L42.5245 5.83871L30.3479 10.3881Z" fill="#E2761B"/>
<path d="M6.96802 5.57123L22.4577 17.2787L19.7113 10.3264L6.96802 5.57123Z" fill="#E4761B"/>
<path fill-rule="evenodd" clip-rule="evenodd" d="M6.89922 5.53345C6.91797 5.4993 6.95894 5.48408 6.99543 5.4977L19.7387 10.2529C19.7595 10.2607 19.7761 10.2769 19.7842 10.2976L22.5306 17.2499C22.5435 17.2826 22.5331 17.3199 22.5051 17.3412C22.4771 17.3624 22.4384 17.3625 22.4103 17.3413L6.92069 5.63382C6.88961 5.61033 6.88047 5.56759 6.89922 5.53345ZM7.4439 5.83255L22.282 17.0475L19.6511 10.3877L7.4439 5.83255Z" fill="#E4761B"/>
<path d="M37.398 32.4545L33.2391 38.8261L42.1375 41.2743L44.6955 32.5957L37.398 32.4545Z" fill="#E4761B"/>
<path fill-rule="evenodd" clip-rule="evenodd" d="M37.3322 32.4116C37.347 32.3889 37.3724 32.3755 37.3994 32.376L44.697 32.5172C44.7215 32.5177 44.7443 32.5296 44.7588 32.5493C44.7732 32.569 44.7777 32.5944 44.7707 32.6179L42.2127 41.2964C42.2006 41.3375 42.1578 41.3613 42.1166 41.3499L33.2183 38.9017C33.1941 38.8951 33.1746 38.8773 33.1657 38.8538C33.1569 38.8304 33.1597 38.8041 33.1734 38.7832L37.3322 32.4116ZM37.4399 32.5337L33.3636 38.7789L42.0839 41.1782L44.5911 32.6721L37.4399 32.5337Z" fill="#E4761B"/>
<path d="M5.32019 32.5957L7.86256 41.2743L16.7609 38.8261L12.602 32.4545L5.32019 32.5957Z" fill="#E4761B"/>
<path fill-rule="evenodd" clip-rule="evenodd" d="M12.6005 32.376C12.6275 32.3755 12.653 32.3889 12.6677 32.4116L16.8266 38.7832C16.8403 38.8041 16.8431 38.8304 16.8342 38.8538C16.8254 38.8773 16.8058 38.8951 16.7817 38.9017L7.88336 41.3499C7.84206 41.3613 7.79928 41.3374 7.78724 41.2963L5.24486 32.6177C5.23799 32.5943 5.24245 32.569 5.25691 32.5493C5.27138 32.5295 5.2942 32.5177 5.31865 32.5172L12.6005 32.376ZM5.42433 32.6721L7.91614 41.1781L16.6364 38.7789L12.5601 32.5337L5.42433 32.6721Z" fill="#E4761B"/>
<path d="M16.2586 21.6886L13.7791 25.4394L22.6146 25.8317L22.3007 16.337L16.2586 21.6886Z" fill="#E4761B"/>
<path fill-rule="evenodd" clip-rule="evenodd" d="M22.3317 16.265C22.3596 16.277 22.3781 16.3041 22.3791 16.3345L22.693 25.8291C22.6937 25.851 22.6853 25.8722 22.6697 25.8875C22.6542 25.9029 22.6329 25.9111 22.6111 25.9101L13.7755 25.5178C13.7473 25.5165 13.7219 25.5002 13.7091 25.475C13.6963 25.4498 13.698 25.4197 13.7136 25.3961L16.1932 21.6453C16.1969 21.6396 16.2015 21.6344 16.2066 21.6299L22.2487 16.2783C22.2714 16.2582 22.3038 16.253 22.3317 16.265ZM16.3184 21.7405L13.9209 25.3672L22.5333 25.7496L22.2278 16.5065L16.3184 21.7405Z" fill="#E4761B"/>
<path d="M33.7257 21.6886L27.6051 16.2272L27.4011 25.8318L36.2209 25.4394L33.7257 21.6886Z" fill="#E4761B"/>
<path fill-rule="evenodd" clip-rule="evenodd" d="M27.5738 16.1553C27.6019 16.143 27.6345 16.1483 27.6574 16.1687L33.7779 21.6301C33.7829 21.6345 33.7873 21.6396 33.791 21.6451L36.2863 25.3959C36.3019 25.4195 36.3037 25.4497 36.2909 25.4749C36.2781 25.5001 36.2527 25.5165 36.2244 25.5178L27.4046 25.9101C27.3829 25.9111 27.3618 25.903 27.3463 25.8879C27.3307 25.8727 27.3222 25.8518 27.3226 25.8301L27.5267 16.2255C27.5273 16.1949 27.5457 16.1675 27.5738 16.1553ZM27.6799 16.3992L27.4813 25.7496L36.0786 25.3672L33.6659 21.7404L27.6799 16.3992Z" fill="#E4761B"/>
<path d="M16.7609 38.8261L22.0653 36.2366L17.4828 32.6584L16.7609 38.8261Z" fill="#E4761B"/>
<path fill-rule="evenodd" clip-rule="evenodd" d="M17.4525 32.5861C17.4787 32.5752 17.5087 32.5792 17.531 32.5966L22.1136 36.1748C22.1349 36.1914 22.1461 36.2179 22.1433 36.2448C22.1405 36.2717 22.124 36.2953 22.0997 36.3072L16.7953 38.8966C16.7695 38.9092 16.7389 38.9067 16.7155 38.8901C16.6921 38.8735 16.6796 38.8455 16.6829 38.817L17.4048 32.6494C17.4081 32.6212 17.4263 32.597 17.4525 32.5861ZM17.5445 32.8062L16.8555 38.6926L21.918 36.2212L17.5445 32.8062Z" fill="#E4761B"/>
<path d="M27.9191 36.2366L33.2392 38.8261L32.5016 32.6584L27.9191 36.2366Z" fill="#E4761B"/>
<path fill-rule="evenodd" clip-rule="evenodd" d="M32.5317 32.586C32.5579 32.5969 32.5761 32.621 32.5795 32.6492L33.3171 38.8168C33.3205 38.8453 33.3081 38.8734 33.2847 38.89C33.2613 38.9067 33.2307 38.9092 33.2049 38.8967L27.8847 36.3072C27.8604 36.2954 27.8438 36.2718 27.841 36.2449C27.8382 36.2179 27.8494 36.1915 27.8708 36.1748L32.4533 32.5966C32.4756 32.5792 32.5056 32.5752 32.5317 32.586ZM28.0664 36.2211L33.1442 38.6926L32.4402 32.806L28.0664 36.2211Z" fill="#E4761B"/>
<path d="M33.2392 38.8261L27.9191 36.2366L28.3428 39.7049L28.2957 41.1644L33.2392 38.8261Z" fill="#D7C1B3"/>
<path fill-rule="evenodd" clip-rule="evenodd" d="M27.8735 36.1727C27.8969 36.156 27.9275 36.1535 27.9534 36.1661L33.2735 38.7555C33.3007 38.7687 33.3178 38.7963 33.3177 38.8265C33.3175 38.8567 33.3 38.8841 33.2727 38.897L28.3292 41.2354C28.3045 41.247 28.2755 41.245 28.2527 41.23C28.2298 41.215 28.2164 41.1892 28.2173 41.1619L28.2642 39.7084L27.8412 36.2461C27.8377 36.2176 27.8501 36.1894 27.8735 36.1727ZM28.0144 36.3703L28.4207 39.6954C28.4212 39.6994 28.4213 39.7034 28.4212 39.7074L28.3783 41.0386L33.0578 38.8251L28.0144 36.3703Z" fill="#D7C1B3"/>
<path d="M16.7609 38.8261L21.7044 41.1644L21.673 39.7049L22.0653 36.2366L16.7609 38.8261Z" fill="#D7C1B3"/>
<path fill-rule="evenodd" clip-rule="evenodd" d="M22.1105 36.1725C22.1339 36.189 22.1465 36.217 22.1433 36.2454L21.7515 39.7085L21.7828 41.1627C21.7834 41.1899 21.7698 41.2155 21.747 41.2303C21.7242 41.2451 21.6954 41.247 21.6708 41.2354L16.7273 38.897C16.7 38.8841 16.6826 38.8567 16.6824 38.8265C16.6822 38.7964 16.6993 38.7688 16.7264 38.7556L22.0309 36.1661C22.0566 36.1535 22.0871 36.156 22.1105 36.1725ZM16.942 38.825L21.6232 41.0392L21.5945 39.7066C21.5944 39.7031 21.5946 39.6996 21.595 39.6961L21.9712 36.3698L16.942 38.825Z" fill="#D7C1B3"/>
<path d="M21.7828 30.3672L17.3572 29.0647L20.4802 27.6365L21.7828 30.3672Z" fill="#233447"/>
<path fill-rule="evenodd" clip-rule="evenodd" d="M20.4476 27.5652C20.4865 27.5474 20.5326 27.5641 20.551 27.6027L21.8536 30.3334C21.8669 30.3614 21.8626 30.3946 21.8425 30.4181C21.8224 30.4417 21.7903 30.4512 21.7606 30.4425L17.335 29.1399C17.3036 29.1307 17.2812 29.1029 17.2789 29.0702C17.2766 29.0376 17.2947 29.0069 17.3245 28.9933L20.4476 27.5652ZM17.5808 29.0487L21.6362 30.2423L20.4426 27.74L17.5808 29.0487Z" fill="#233447"/>
<path d="M28.2015 30.3672L29.5041 27.6365L32.6428 29.0647L28.2015 30.3672Z" fill="#233447"/>
<path fill-rule="evenodd" clip-rule="evenodd" d="M29.4333 27.6027C29.4517 27.5641 29.4976 27.5474 29.5366 27.5651L32.6753 28.9932C32.7052 29.0068 32.7234 29.0375 32.7211 29.0702C32.7188 29.1029 32.6964 29.1307 32.6649 29.1399L28.2236 30.4425C28.1939 30.4512 28.1618 30.4417 28.1418 30.4181C28.1217 30.3945 28.1174 30.3614 28.1307 30.3334L29.4333 27.6027ZM29.5417 27.7399L28.3479 30.2425L32.4183 29.0487L29.5417 27.7399Z" fill="#233447"/>
<path d="M16.7609 38.8261L17.5142 32.4545L12.6021 32.5957L16.7609 38.8261Z" fill="#CD6116"/>
<path fill-rule="evenodd" clip-rule="evenodd" d="M17.572 32.4015C17.5874 32.4184 17.5947 32.4411 17.5921 32.4637L16.8388 38.8353C16.8349 38.868 16.8111 38.8948 16.7792 38.9024C16.7472 38.9101 16.7138 38.897 16.6956 38.8697L12.5368 32.6393C12.5209 32.6156 12.5192 32.5851 12.5323 32.5597C12.5454 32.5344 12.5712 32.5181 12.5998 32.5173L17.5119 32.3761C17.5347 32.3754 17.5566 32.3847 17.572 32.4015ZM12.746 32.6701L16.7079 38.6055L17.4255 32.5356L12.746 32.6701Z" fill="#CD6116"/>
<path d="M32.486 32.4545L33.2393 38.8261L37.3981 32.5957L32.486 32.4545Z" fill="#CD6116"/>
<path fill-rule="evenodd" clip-rule="evenodd" d="M32.428 32.4015C32.4434 32.3847 32.4654 32.3754 32.4882 32.3761L37.4003 32.5173C37.4288 32.5181 37.4547 32.5344 37.4678 32.5597C37.4809 32.5851 37.4792 32.6156 37.4633 32.6393L33.3045 38.8697C33.2863 38.897 33.2529 38.9101 33.2209 38.9024C33.189 38.8948 33.1652 38.868 33.1613 38.8353L32.408 32.4637C32.4053 32.4411 32.4126 32.4184 32.428 32.4015ZM32.5745 32.5356L33.2922 38.6055L37.2541 32.6701L32.5745 32.5356Z" fill="#CD6116"/>
<path d="M36.2209 25.4395L27.4011 25.8318L28.2172 30.3673L29.5198 27.6366L32.6585 29.0647L36.2209 25.4395Z" fill="#CD6116"/>
<path fill-rule="evenodd" clip-rule="evenodd" d="M36.2926 25.4075C36.3057 25.4369 36.2995 25.4714 36.2769 25.4944L32.7144 29.1197C32.6913 29.1432 32.656 29.1497 32.626 29.1361L29.5574 27.7399L28.288 30.401C28.2733 30.4318 28.2405 30.4495 28.2067 30.445C28.173 30.4405 28.146 30.4147 28.1399 30.3811L27.3239 25.8457C27.3199 25.8234 27.3257 25.8005 27.3398 25.7828C27.3539 25.7651 27.375 25.7544 27.3976 25.7534L36.2175 25.361C36.2497 25.3596 36.2795 25.378 36.2926 25.4075ZM27.4942 25.9062L28.2513 30.1135L29.4489 27.6028C29.4673 27.5641 29.5133 27.5474 29.5522 27.5651L32.641 28.9705L36.0252 25.5267L27.4942 25.9062Z" fill="#CD6116"/>
<path d="M17.3572 29.0647L20.4959 27.6366L21.7828 30.3673L22.6146 25.8318L13.7791 25.4395L17.3572 29.0647Z" fill="#CD6116"/>
<path fill-rule="evenodd" clip-rule="evenodd" d="M13.7073 25.4076C13.7204 25.3781 13.7503 25.3596 13.7825 25.361L22.618 25.7534C22.6407 25.7544 22.6618 25.7651 22.6759 25.7829C22.6901 25.8006 22.6958 25.8236 22.6917 25.8459L21.86 30.3814C21.8538 30.4149 21.8267 30.4406 21.7929 30.445C21.7591 30.4494 21.7263 30.4315 21.7118 30.4007L20.4579 27.74L17.3897 29.1361C17.3597 29.1497 17.3245 29.1432 17.3013 29.1198L13.7232 25.4946C13.7005 25.4716 13.6942 25.4371 13.7073 25.4076ZM13.9754 25.5267L17.3745 28.9706L20.4634 27.5651C20.5025 27.5473 20.5486 27.5643 20.5669 27.6031L21.7497 30.1129L22.5211 25.9062L13.9754 25.5267Z" fill="#CD6116"/>
<path d="M13.7791 25.4395L17.4828 32.6585L17.3572 29.0647L13.7791 25.4395Z" fill="#E4751F"/>
<path fill-rule="evenodd" clip-rule="evenodd" d="M13.733 25.3759C13.7644 25.3532 13.8077 25.3567 13.8349 25.3843L17.413 29.0095C17.4269 29.0236 17.4349 29.0423 17.4356 29.0619L17.5612 32.6558C17.5624 32.6925 17.5381 32.7252 17.5025 32.7345C17.4669 32.7437 17.4297 32.727 17.4129 32.6943L13.7092 25.4753C13.6915 25.4408 13.7017 25.3986 13.733 25.3759ZM14.082 25.8581L17.392 32.3098L17.2798 29.098L14.082 25.8581Z" fill="#E4751F"/>
<path d="M32.6585 29.0647L32.5016 32.6585L36.221 25.4395L32.6585 29.0647Z" fill="#E4751F"/>
<path fill-rule="evenodd" clip-rule="evenodd" d="M36.267 25.3759C36.2984 25.3986 36.3085 25.4409 36.2907 25.4754L32.5713 32.6945C32.5544 32.7272 32.517 32.7438 32.4814 32.7344C32.4458 32.7249 32.4216 32.6919 32.4232 32.6551L32.5801 29.0612C32.581 29.0419 32.5889 29.0235 32.6025 29.0097L36.165 25.3844C36.1922 25.3568 36.2355 25.3531 36.267 25.3759ZM32.7356 29.0982L32.5956 32.3048L35.9142 25.8636L32.7356 29.0982Z" fill="#E4751F"/>
<path d="M22.6146 25.8318L21.7828 30.3673L22.8186 35.7188L23.054 28.6723L22.6146 25.8318Z" fill="#E4751F"/>
<path fill-rule="evenodd" clip-rule="evenodd" d="M22.6157 25.7533C22.654 25.7538 22.6863 25.7819 22.6921 25.8198L23.1315 28.6603C23.1323 28.6652 23.1326 28.67 23.1324 28.6749L22.897 35.7214C22.8957 35.7613 22.8646 35.7938 22.8248 35.797C22.785 35.8001 22.7491 35.7729 22.7416 35.7337L21.7058 30.3821C21.7039 30.3725 21.7039 30.3627 21.7056 30.3531L22.5374 25.8176C22.5443 25.7799 22.5774 25.7528 22.6157 25.7533ZM21.8627 30.3668L22.7634 35.0207L22.9753 28.677L22.608 26.3026L21.8627 30.3668Z" fill="#E4751F"/>
<path d="M27.4012 25.8318L26.9774 28.6566L27.1657 35.7188L28.2172 30.3673L27.4012 25.8318Z" fill="#E4751F"/>
<path fill-rule="evenodd" clip-rule="evenodd" d="M27.4 25.7533C27.4384 25.7527 27.4716 25.7801 27.4784 25.8179L28.2944 30.3533C28.2961 30.3629 28.2961 30.3728 28.2942 30.3824L27.2427 35.7339C27.235 35.7731 27.199 35.8003 27.1592 35.797C27.1193 35.7936 27.0883 35.7608 27.0873 35.7209L26.899 28.6587C26.8988 28.6541 26.8991 28.6495 26.8998 28.645L27.3235 25.8201C27.3292 25.7821 27.3616 25.7539 27.4 25.7533ZM27.4081 26.3139L27.056 28.6614L27.2253 35.0086L28.1374 30.3666L27.4081 26.3139Z" fill="#E4751F"/>
<path d="M28.2172 30.3672L27.1658 35.7187L27.9191 36.2366L32.5016 32.6585L32.6586 29.0646L28.2172 30.3672Z" fill="#F6851B"/>
<path fill-rule="evenodd" clip-rule="evenodd" d="M32.7069 29.0029C32.7269 29.0185 32.738 29.0428 32.7369 29.0681L32.58 32.6619C32.579 32.6849 32.568 32.7062 32.5499 32.7204L27.9673 36.2985C27.9403 36.3196 27.9028 36.3207 27.8746 36.3013L27.1213 35.7834C27.0955 35.7657 27.0827 35.7344 27.0888 35.7037L28.1402 30.3521C28.1459 30.3234 28.167 30.3002 28.1951 30.292L32.6365 28.9894C32.6608 28.9823 32.687 28.9873 32.7069 29.0029ZM28.285 30.4291L27.2527 35.6833L27.9161 36.1394L32.4248 32.6189L32.5754 29.1708L28.285 30.4291Z" fill="#F6851B"/>
<path d="M17.3572 29.0646L17.4827 32.6585L22.0653 36.2366L22.8186 35.7187L21.7828 30.3672L17.3572 29.0646Z" fill="#F6851B"/>
<path fill-rule="evenodd" clip-rule="evenodd" d="M17.3091 29.0027C17.329 28.9872 17.3551 28.9823 17.3793 28.9894L21.8049 30.292C21.8331 30.3003 21.8542 30.3235 21.8598 30.3523L22.8956 35.7039C22.9015 35.7345 22.8887 35.7658 22.863 35.7834L22.1097 36.3013C22.0815 36.3207 22.044 36.3196 22.017 36.2985L17.4344 32.7204C17.4161 32.7061 17.4051 32.6844 17.4043 32.6613L17.2787 29.0674C17.2779 29.0422 17.2891 29.0181 17.3091 29.0027ZM17.4394 29.1707L17.5598 32.6192L22.0682 36.1394L22.7318 35.6832L21.7148 30.429L17.4394 29.1707Z" fill="#F6851B"/>
<path d="M28.2956 41.1645L28.3427 39.705L27.9503 39.3597H22.0338L21.6729 39.705L21.7042 41.1645L16.7607 38.8261L18.487 40.2385L21.9867 42.6711H27.9974L31.5128 40.2385L33.2391 38.8261L28.2956 41.1645Z" fill="#C0AD9E"/>
<path fill-rule="evenodd" clip-rule="evenodd" d="M16.6945 38.7842C16.7157 38.7507 16.7586 38.7383 16.7944 38.7552L21.6232 41.0393L21.5945 39.7067C21.594 39.6847 21.6028 39.6635 21.6187 39.6483L21.9797 39.303C21.9943 39.2891 22.0137 39.2813 22.0339 39.2813H27.9504C27.9695 39.2813 27.9879 39.2882 28.0023 39.3008L28.3946 39.6461C28.4122 39.6616 28.422 39.6841 28.4212 39.7075L28.3783 41.0387L33.2056 38.7552C33.2415 38.7383 33.2843 38.7507 33.3055 38.7842C33.3267 38.8177 33.3196 38.8618 33.2889 38.8869L31.5626 40.2993C31.561 40.3007 31.5593 40.3019 31.5575 40.3031L28.0422 42.7356C28.029 42.7447 28.0135 42.7496 27.9975 42.7496H21.9868C21.9708 42.7496 21.9552 42.7447 21.9421 42.7355L18.4424 40.303C18.4407 40.3019 18.439 40.3006 18.4375 40.2993L16.7112 38.8869C16.6805 38.8618 16.6733 38.8177 16.6945 38.7842ZM17.3061 39.1709L18.5345 40.1759L22.0114 42.5926H27.973L31.4656 40.1759L32.694 39.1709L28.3292 41.2354C28.3045 41.2471 28.2755 41.2451 28.2527 41.2301C28.2298 41.2151 28.2164 41.1893 28.2173 41.162L28.2632 39.7395L27.9208 39.4382H22.0654L21.7522 39.7378L21.7828 41.1628C21.7834 41.19 21.7699 41.2156 21.747 41.2304C21.7242 41.2451 21.6954 41.2471 21.6708 41.2354L17.3061 39.1709Z" fill="#C0AD9E"/>
<path d="M27.919 36.2367L27.1658 35.7188H22.8186L22.0653 36.2367L21.673 39.705L22.0339 39.3597H27.9504L28.3428 39.705L27.919 36.2367Z" fill="#161616"/>
<path fill-rule="evenodd" clip-rule="evenodd" d="M22.7741 35.6541C22.7872 35.6451 22.8027 35.6403 22.8186 35.6403H27.1657C27.1816 35.6403 27.1971 35.6451 27.2102 35.6541L27.9635 36.172C27.982 36.1848 27.9942 36.2048 27.9969 36.2272L28.4206 39.6955C28.4246 39.7278 28.4082 39.7592 28.3794 39.7744C28.3506 39.7896 28.3154 39.7854 28.2909 39.7639L27.9208 39.4382H22.0654L21.7272 39.7617C21.7033 39.7845 21.6677 39.7899 21.6381 39.7753C21.6085 39.7606 21.5913 39.729 21.595 39.6962L21.9873 36.2279C21.9899 36.2053 22.0021 36.1849 22.0208 36.172L22.7741 35.6541ZM22.843 35.7973L22.1392 36.2811L21.7753 39.4985L21.9797 39.303C21.9943 39.289 22.0137 39.2812 22.0339 39.2812H27.9504C27.9695 39.2812 27.9879 39.2882 28.0023 39.3008L28.2399 39.5099L27.8454 36.2813L27.1414 35.7973H22.843Z" fill="#161616"/>
<path d="M43.6755 17.9222L45.0095 11.5192L43.0164 5.57129L27.9191 16.7766L33.7257 21.6887L41.9335 24.0898L43.754 21.9712L42.9693 21.4062L44.2248 20.2606L43.2518 19.5073L44.5073 18.5499L43.6755 17.9222Z" fill="#763D16"/>
<path fill-rule="evenodd" clip-rule="evenodd" d="M43.0399 5.49641C43.0638 5.50394 43.0828 5.52251 43.0907 5.54634L45.0838 11.4942C45.0883 11.5074 45.0891 11.5215 45.0863 11.5352L43.7624 17.8895L44.5545 18.4873C44.5741 18.5021 44.5857 18.5252 44.5857 18.5497C44.5858 18.5743 44.5743 18.5974 44.5548 18.6123L43.3805 19.5077L44.2728 20.1985C44.2911 20.2127 44.3022 20.2342 44.3032 20.2574C44.3041 20.2805 44.2948 20.3029 44.2776 20.3185L43.0936 21.399L43.7998 21.9075C43.8176 21.9203 43.8293 21.94 43.8319 21.9619C43.8345 21.9837 43.8278 22.0056 43.8135 22.0223L41.993 24.1409C41.9729 24.1643 41.941 24.1737 41.9115 24.1651L33.7037 21.764C33.6931 21.7609 33.6834 21.7556 33.675 21.7486L27.8684 16.8364C27.8501 16.821 27.8399 16.798 27.8406 16.774C27.8414 16.7501 27.853 16.7278 27.8723 16.7135L42.9696 5.50826C42.9898 5.49328 43.0159 5.48887 43.0399 5.49641ZM28.0453 16.7806L33.7637 21.618L41.9069 24.0003L43.6387 21.9849L42.9234 21.4698C42.9042 21.456 42.8923 21.4343 42.8909 21.4107C42.8896 21.3871 42.8989 21.3641 42.9164 21.3482L44.1029 20.2655L43.2037 19.5693C43.1844 19.5544 43.1732 19.5313 43.1733 19.5069C43.1734 19.4826 43.1848 19.4596 43.2042 19.4448L44.3774 18.5502L43.6282 17.9848C43.604 17.9665 43.5925 17.9359 43.5987 17.9062L44.9283 11.524L42.9763 5.69871L28.0453 16.7806Z" fill="#763D16"/>
<path d="M4.9906 11.5192L6.32456 17.9222L5.4771 18.5499L6.7326 19.5073L5.77528 20.2606L7.03078 21.4062L6.24609 21.9712L8.05086 24.0898L16.2586 21.6887L22.0653 16.7766L6.968 5.57129L4.9906 11.5192Z" fill="#763D16"/>
<path fill-rule="evenodd" clip-rule="evenodd" d="M6.94437 5.49644C6.96836 5.48886 6.99454 5.49326 7.01475 5.50826L22.112 16.7135C22.1313 16.7278 22.1429 16.7501 22.1437 16.774C22.1445 16.798 22.1343 16.821 22.116 16.8364L16.3093 21.7486C16.3009 21.7556 16.2912 21.7609 16.2807 21.764L8.07287 24.1651C8.04319 24.1738 8.01117 24.1642 7.99111 24.1407L6.18634 22.022C6.17212 22.0053 6.16553 21.9835 6.16817 21.9617C6.17081 21.9399 6.18243 21.9203 6.20022 21.9075L6.90645 21.399L5.72237 20.3185C5.70534 20.303 5.696 20.2807 5.69684 20.2577C5.69769 20.2346 5.70862 20.2131 5.72674 20.1989L6.60444 19.5082L5.4295 18.6123C5.40988 18.5974 5.39844 18.574 5.39862 18.5494C5.39879 18.5247 5.41055 18.5016 5.43037 18.4869L6.23748 17.889L4.91376 11.5352C4.91093 11.5216 4.91175 11.5075 4.91612 11.4944L6.89352 5.54651C6.90146 5.52263 6.92037 5.50401 6.94437 5.49644ZM7.00825 5.69887L5.07171 11.5239L6.40136 17.9062C6.4076 17.9361 6.39585 17.967 6.37125 17.9852L5.60768 18.5508L6.78015 19.4448C6.79945 19.4595 6.81086 19.4824 6.81104 19.5066C6.81123 19.5309 6.80017 19.5539 6.7811 19.5689L5.89653 20.265L7.08365 21.3482C7.10111 21.3641 7.11046 21.3871 7.10909 21.4107C7.10772 21.4343 7.09579 21.456 7.0766 21.4698L6.36102 21.9851L8.07761 24.0002L16.2206 21.618L21.939 16.7806L7.00825 5.69887Z" fill="#763D16"/>
<path d="M41.9335 24.0897L33.7257 21.6886L36.221 25.4394L32.5016 32.6585L37.398 32.5957H44.6955L41.9335 24.0897Z" fill="#F6851B"/>
<path fill-rule="evenodd" clip-rule="evenodd" d="M33.6625 21.6421C33.682 21.6156 33.7161 21.6041 33.7477 21.6133L41.9555 24.0145C41.9804 24.0217 42.0001 24.0409 42.0081 24.0655L44.7702 32.5715C44.7779 32.5954 44.7738 32.6215 44.759 32.6419C44.7443 32.6622 44.7207 32.6742 44.6955 32.6742H37.398L32.5026 32.737C32.475 32.7373 32.4493 32.7232 32.4348 32.6998C32.4203 32.6764 32.4192 32.6471 32.4318 32.6226L36.1301 25.4445L33.6603 21.7321C33.6421 21.7047 33.6429 21.6687 33.6625 21.6421ZM33.9102 21.8244L36.2863 25.396C36.3021 25.4197 36.3038 25.4501 36.2907 25.4754L32.6311 32.5784L37.398 32.5173L44.5876 32.5173L41.8716 24.1534L33.9102 21.8244Z" fill="#F6851B"/>
<path d="M16.2587 21.6886L8.05089 24.0897L5.32019 32.5957H12.602L17.4828 32.6585L13.7791 25.4394L16.2587 21.6886Z" fill="#F6851B"/>
<path fill-rule="evenodd" clip-rule="evenodd" d="M16.3218 21.6421C16.3413 21.6686 16.3423 21.7044 16.3241 21.7319L13.8698 25.4444L17.5526 32.6227C17.5651 32.6472 17.5639 32.6765 17.5494 32.6998C17.5349 32.7232 17.5093 32.7373 17.4817 32.737L12.602 32.6742H5.32017C5.2951 32.6742 5.27154 32.6622 5.25677 32.642C5.242 32.6217 5.23779 32.5956 5.24546 32.5718L7.97615 24.0658C7.98411 24.041 8.00384 24.0218 8.02883 24.0145L16.2366 21.6133C16.2682 21.6041 16.3022 21.6156 16.3218 21.6421ZM8.11285 24.1534L5.42777 32.5173H12.603L17.3534 32.5784L13.7092 25.4752C13.6963 25.45 13.698 25.4198 13.7136 25.3962L16.075 21.8241L8.11285 24.1534Z" fill="#F6851B"/>
<path d="M27.4012 25.8317L27.9191 16.7765L30.3045 10.3264H19.7113L22.0654 16.7765L22.6146 25.8317L22.803 28.688L22.8186 35.7187H27.1658L27.1972 28.688L27.4012 25.8317Z" fill="#F6851B"/>
<path fill-rule="evenodd" clip-rule="evenodd" d="M19.647 10.2815C19.6617 10.2605 19.6857 10.248 19.7113 10.248H30.3045C30.3302 10.248 30.3542 10.2605 30.3689 10.2816C30.3836 10.3027 30.387 10.3296 30.3781 10.3537L27.9967 16.7928L27.4795 25.8363L27.4794 25.8374L27.2756 28.691L27.2442 35.7191C27.244 35.7623 27.209 35.7973 27.1658 35.7973H22.8186C22.7754 35.7973 22.7403 35.7622 22.7402 35.719L22.7245 28.6907L22.5363 25.837L22.5363 25.8365L21.9877 16.7927L19.6376 10.3534C19.6288 10.3293 19.6323 10.3025 19.647 10.2815ZM19.8235 10.4049L22.139 16.7496C22.1416 16.7568 22.1432 16.7642 22.1437 16.7718L22.6929 25.8266L22.6929 25.827L22.8812 28.6829C22.8813 28.6845 22.8814 28.6862 22.8814 28.6879L22.8969 35.6403H27.0877L27.1187 28.6877C27.1187 28.6859 27.1188 28.6842 27.1189 28.6824L27.3228 25.8273L27.3229 25.8262L27.8407 16.7721C27.8412 16.7643 27.8428 16.7566 27.8455 16.7493L30.1918 10.4049H19.8235Z" fill="#F6851B"/>
</svg>
