<svg width="24" height="24" viewBox="0 0 24 24" fill="none" xmlns="http://www.w3.org/2000/svg">
<path d="M14.045 5.04907C14.045 6.18074 13.1292 7.09814 11.9996 7.09814C10.8699 7.09814 9.9541 6.18074 9.9541 5.04907C9.9541 3.9174 10.8699 3 11.9996 3C13.1292 3 14.045 3.9174 14.045 5.04907Z" fill="#FDAC57"/>
<path d="M6.68182 12.016C6.68182 13.0345 5.85762 13.8602 4.84091 13.8602C3.8242 13.8602 3 13.0345 3 12.016C3 10.9975 3.8242 10.1719 4.84091 10.1719C5.85762 10.1719 6.68182 10.9975 6.68182 12.016Z" fill="#FDAC57"/>
<path d="M8.11346 16.319C8.11346 17.3375 7.28926 18.1632 6.27255 18.1632C5.25584 18.1632 4.43164 17.3375 4.43164 16.319C4.43164 15.3005 5.25584 14.4749 6.27255 14.4749C7.28926 14.4749 8.11346 15.3005 8.11346 16.319Z" fill="#FDAC57"/>
<path d="M11.0872 18.9518C11.0872 19.8571 10.3546 20.591 9.45082 20.591C8.54708 20.591 7.81445 19.8571 7.81445 18.9518C7.81445 18.0464 8.54708 17.3125 9.45082 17.3125C10.3546 17.3125 11.0872 18.0464 11.0872 18.9518Z" fill="#FDAC57"/>
<path d="M16.0891 18.9425C16.0891 19.8478 15.3565 20.5817 14.4528 20.5817C13.549 20.5817 12.8164 19.8478 12.8164 18.9425C12.8164 18.0371 13.549 17.3032 14.4528 17.3032C15.3565 17.3032 16.0891 18.0371 16.0891 18.9425Z" fill="#FDAC57"/>
<path d="M19.7728 16.114C19.7728 16.9062 19.1318 17.5484 18.341 17.5484C17.5502 17.5484 16.9092 16.9062 16.9092 16.114C16.9092 15.3219 17.5502 14.6797 18.341 14.6797C19.1318 14.6797 19.7728 15.3219 19.7728 16.114Z" fill="#FDAC57"/>
<path d="M21.0004 12.2207C21.0004 13.0129 20.3593 13.6551 19.5685 13.6551C18.7778 13.6551 18.1367 13.0129 18.1367 12.2207C18.1367 11.4286 18.7778 10.7864 19.5685 10.7864C20.3593 10.7864 21.0004 11.4286 21.0004 12.2207Z" fill="#FDAC57"/>
<path d="M17.9322 5.6637C17.9322 6.22953 17.4743 6.68823 16.9094 6.68823C16.3446 6.68823 15.8867 6.22953 15.8867 5.6637C15.8867 5.09786 16.3446 4.63916 16.9094 4.63916C17.4743 4.63916 17.9322 5.09786 17.9322 5.6637Z" fill="#FDAC57"/>
<path d="M8.93173 7.30298C8.93173 8.43465 8.01595 9.35205 6.88627 9.35205C5.7566 9.35205 4.84082 8.43465 4.84082 7.30298C4.84082 6.17131 5.7566 5.25391 6.88627 5.25391C8.01595 5.25391 8.93173 6.17131 8.93173 7.30298Z" fill="#FDAC57"/>
<path d="M20.1821 8.53242C20.1821 9.21142 19.6326 9.76186 18.9548 9.76186C18.277 9.76186 17.7275 9.21142 17.7275 8.53242C17.7275 7.85342 18.277 7.30298 18.9548 7.30298C19.6326 7.30298 20.1821 7.85342 20.1821 8.53242Z" fill="#FDAC57"/>
</svg>
