<svg width="18" height="18" viewBox="0 0 18 18" fill="none" xmlns="http://www.w3.org/2000/svg">
<path d="M5.31836 10.144V12.3984H4V6H6.49609C6.97656 6 7.39844 6.08789 7.76172 6.26367C8.12793 6.43945 8.40918 6.68994 8.60547 7.01514C8.80176 7.3374 8.8999 7.70508 8.8999 8.11816C8.8999 8.74512 8.68457 9.24023 8.25391 9.60352C7.82617 9.96387 7.23291 10.144 6.47412 10.144H5.31836ZM5.31836 9.07617H6.49609C6.84473 9.07617 7.10986 8.99414 7.2915 8.83008C7.47607 8.66602 7.56836 8.43164 7.56836 8.12695C7.56836 7.81348 7.47607 7.56006 7.2915 7.3667C7.10693 7.17334 6.85205 7.07373 6.52686 7.06787H5.31836V9.07617Z" fill="white"/>
<path d="M11.1279 10.144V12.3984H9.80957V6H12.3057C12.7861 6 13.208 6.08789 13.5713 6.26367C13.9375 6.43945 14.2188 6.68994 14.415 7.01514C14.6113 7.3374 14.7095 7.70508 14.7095 8.11816C14.7095 8.74512 14.4941 9.24023 14.0635 9.60352C13.6357 9.96387 13.0425 10.144 12.2837 10.144H11.1279ZM11.1279 9.07617H12.3057C12.6543 9.07617 12.9194 8.99414 13.1011 8.83008C13.2856 8.66602 13.3779 8.43164 13.3779 8.12695C13.3779 7.81348 13.2856 7.56006 13.1011 7.3667C12.9165 7.17334 12.6616 7.07373 12.3364 7.06787H11.1279V9.07617Z" fill="white"/>
<circle cx="9" cy="9" r="8.15" stroke="white" stroke-width="1.7"/>
</svg>
