<svg width="18" height="18" viewBox="0 0 18 18" fill="none" xmlns="http://www.w3.org/2000/svg">
<path d="M9 0C7.21997 0 5.47991 0.527841 3.99987 1.51677C2.51983 2.50571 1.36628 3.91131 0.685088 5.55585C0.00389957 7.20038 -0.17433 9.00998 0.172936 10.7558C0.520203 12.5016 1.37737 14.1053 2.63604 15.364C3.89471 16.6226 5.49836 17.4798 7.24419 17.8271C8.99002 18.1743 10.7996 17.9961 12.4442 17.3149C14.0887 16.6337 15.4943 15.4802 16.4832 14.0001C17.4722 12.5201 18 10.78 18 9C18 6.61305 17.0518 4.32387 15.364 2.63604C13.6761 0.948211 11.387 0 9 0ZM9 15.1145C8.78424 15.1145 8.57333 15.0506 8.39393 14.9307C8.21453 14.8108 8.0747 14.6404 7.99213 14.4411C7.90957 14.2418 7.88796 14.0224 7.93006 13.8108C7.97215 13.5992 8.07605 13.4048 8.22861 13.2522C8.38118 13.0997 8.57556 12.9958 8.78718 12.9537C8.99879 12.9116 9.21814 12.9332 9.41748 13.0158C9.61681 13.0983 9.78719 13.2382 9.90706 13.4176C10.0269 13.597 10.0909 13.8079 10.0909 14.0236C10.0909 14.313 9.97598 14.5904 9.77139 14.795C9.56681 14.9996 9.28933 15.1145 9 15.1145ZM10.6364 10.3909C10.4688 10.4729 10.3283 10.6013 10.2316 10.7609C10.1349 10.9204 10.086 11.1044 10.0909 11.2909V11.8555C10.0909 11.9278 10.0622 11.9972 10.011 12.0483C9.95989 12.0994 9.89052 12.1282 9.81818 12.1282H8.18182C8.10949 12.1282 8.04012 12.0994 7.98897 12.0483C7.93783 11.9972 7.90909 11.9278 7.90909 11.8555V11.2909C7.90346 10.6868 8.07136 10.0938 8.39285 9.58227C8.71435 9.07078 9.17592 8.66233 9.72273 8.40545C10.0394 8.26216 10.306 8.02745 10.4882 7.73148C10.6705 7.43552 10.7601 7.09181 10.7455 6.74454C10.7218 6.30764 10.5374 5.8949 10.2278 5.58576C9.91816 5.27663 9.50513 5.09292 9.06818 5.07C8.83297 5.06042 8.59825 5.09859 8.3782 5.18222C8.15814 5.26584 7.95731 5.39318 7.78782 5.55655C7.61833 5.71993 7.48369 5.91595 7.39204 6.13278C7.30039 6.34962 7.25362 6.58277 7.25455 6.81818C7.25455 6.89051 7.22581 6.95988 7.17467 7.01103C7.12352 7.06217 7.05415 7.09091 6.98182 7.09091H5.34546C5.27313 7.09091 5.20376 7.06217 5.15261 7.01103C5.10146 6.95988 5.07273 6.89051 5.07273 6.81818C5.07234 6.28958 5.17868 5.76633 5.38535 5.27981C5.59203 4.79328 5.8948 4.35348 6.27552 3.98677C6.65624 3.62006 7.10707 3.33398 7.601 3.14568C8.09492 2.95737 8.62178 2.87072 9.15 2.89091C10.0332 2.92476 10.8793 3.25536 11.5514 3.8293C12.2236 4.40324 12.6827 5.18702 12.8545 6.05403C13.0263 6.92104 12.9009 7.82066 12.4984 8.60758C12.0959 9.39449 11.4399 10.0228 10.6364 10.3909Z" fill="#E45363"/>
</svg>
