<svg width="60" height="30" viewBox="0 0 60 30" fill="none" xmlns="http://www.w3.org/2000/svg">
<rect x="0.5" y="0.5" width="59" height="29" rx="4.5" stroke="#E45363"/>
<path d="M28.8047 20H27.4854L22.4746 12.3301V20H21.1553V10.0469H22.4746L27.499 17.751V10.0469H28.8047V20ZM38.792 15.3447C38.792 16.32 38.6279 17.1722 38.2998 17.9014C37.9717 18.626 37.5068 19.1797 36.9053 19.5625C36.3037 19.9453 35.6019 20.1367 34.7998 20.1367C34.016 20.1367 33.321 19.9453 32.7148 19.5625C32.1087 19.1751 31.637 18.626 31.2998 17.915C30.9671 17.1995 30.7962 16.3724 30.7871 15.4336V14.7158C30.7871 13.7588 30.9535 12.9134 31.2861 12.1797C31.6188 11.446 32.0882 10.8854 32.6943 10.498C33.305 10.1061 34.0023 9.91016 34.7861 9.91016C35.5837 9.91016 36.2855 10.1038 36.8916 10.4912C37.5023 10.874 37.9717 11.4323 38.2998 12.166C38.6279 12.8952 38.792 13.7451 38.792 14.7158V15.3447ZM37.4863 14.7021C37.4863 13.5218 37.2493 12.6172 36.7754 11.9883C36.3014 11.3548 35.6383 11.0381 34.7861 11.0381C33.9567 11.0381 33.3027 11.3548 32.8242 11.9883C32.3503 12.6172 32.1064 13.4922 32.0928 14.6133V15.3447C32.0928 16.4886 32.332 17.3887 32.8105 18.0449C33.2936 18.6966 33.9567 19.0225 34.7998 19.0225C35.6475 19.0225 36.3037 18.7148 36.7686 18.0996C37.2334 17.4798 37.4727 16.5934 37.4863 15.4404V14.7021Z" fill="#E45363"/>
</svg>
