<svg width="18" height="19" viewBox="0 0 18 19" fill="none" xmlns="http://www.w3.org/2000/svg">
<path d="M15.9937 7.42456C15.4252 7.42456 14.9249 7.67513 14.5567 8.06551C13.203 7.06953 11.3775 6.42858 9.35471 6.36025L10.4055 1.3285L13.7512 2.12654C13.7512 2.99684 14.4187 3.7077 15.2377 3.7077C16.0724 3.7077 16.7437 2.97799 16.7437 2.1069C16.7437 1.23581 16.0769 0.506104 15.2384 0.506104C14.6542 0.506104 14.1502 0.880775 13.8989 1.3929L10.2037 0.522599C10.0177 0.469972 9.83546 0.611357 9.78596 0.809297L8.63246 6.35632C6.62546 6.44508 4.81946 7.08524 3.46122 8.08201C3.09297 7.67513 2.57322 7.42456 2.00472 7.42456C-0.104278 7.42456 -0.795027 10.4321 1.13622 11.4603C1.06797 11.7785 1.03722 12.1178 1.03722 12.4563C1.03722 15.8346 4.61846 18.572 9.01571 18.572C13.4317 18.572 17.0129 15.8346 17.0129 12.4563C17.0129 12.1178 16.9792 11.7627 16.8959 11.4438C18.7882 10.4117 18.0914 7.42614 15.9937 7.42456ZM4.20072 11.674C4.20072 10.7872 4.86821 10.0732 5.70671 10.0732C6.52571 10.0732 7.19396 10.7825 7.19396 11.674C7.19396 12.5451 6.52646 13.2551 5.70671 13.2551C4.87196 13.2591 4.20072 12.5451 4.20072 11.674ZM12.33 15.4427C10.9492 16.91 7.05296 16.91 5.67146 15.4427C5.51921 15.3013 5.51921 15.0515 5.67146 14.8905C5.80421 14.7491 6.03971 14.7491 6.17246 14.8905C7.22696 16.0397 10.725 16.0593 11.8252 14.8905C11.958 14.7491 12.1935 14.7491 12.3262 14.8905C12.4815 15.0523 12.4815 15.3021 12.33 15.4427ZM12.2992 13.2583C11.4802 13.2583 10.8127 12.549 10.8127 11.6787C10.8127 10.7919 11.4802 10.0779 12.2992 10.0779C13.134 10.0779 13.8052 10.7872 13.8052 11.6787C13.8014 12.5451 13.134 13.2583 12.2992 13.2583Z" fill="white"/>
</svg>
