<svg width="24" height="24" viewBox="0 0 24 24" fill="none" xmlns="http://www.w3.org/2000/svg">
<path fill-rule="evenodd" clip-rule="evenodd" d="M18.1697 18.3705L20.9814 5.94724C21.1188 5.34007 20.4708 4.83273 19.844 5.05204L19.5461 5.15841L3.37999 10.983C3.26577 11.019 3.16664 11.0917 3.09803 11.1899C3.02941 11.288 2.99514 11.4061 3.00056 11.5258C3.00597 11.6454 3.05076 11.7599 3.12796 11.8514C3.20516 11.943 3.31044 12.0065 3.42745 12.032L7.61218 13.1776L8.39283 15.4688L9.17347 17.7601C9.21849 17.8722 9.2902 17.9718 9.38239 18.05C9.47458 18.1282 9.58445 18.1827 9.70248 18.2088C9.82051 18.2349 9.94314 18.2319 10.0597 18.1999C10.1763 18.1679 10.2833 18.1079 10.3714 18.0252L12.5334 15.9811L16.7786 18.8615C17.2974 19.2166 18.0372 18.9531 18.1697 18.3705ZM10.4761 13.7848L17.7801 7.81459C17.9634 7.66403 17.7507 7.40218 17.5428 7.52328L16.1125 8.34157L8.51222 12.6982C8.43644 12.7385 8.37724 12.8042 8.34494 12.8838C8.31264 12.9633 8.30929 13.0517 8.33547 13.1335L8.94919 14.9583L9.54327 16.7421C9.54522 16.7638 9.55571 16.7839 9.57244 16.7978C9.58917 16.8118 9.61076 16.8186 9.63246 16.8166C9.65416 16.8147 9.6742 16.8042 9.68816 16.7874C9.70213 16.7707 9.70888 16.7491 9.70692 16.7274L9.91804 14.9435L9.99496 14.3085C10.0076 14.213 10.0569 14.1262 10.1324 14.0663L10.4761 13.7848Z" fill="white"/>
</svg>
