<svg width="24" height="24" viewBox="0 0 24 24" fill="none" xmlns="http://www.w3.org/2000/svg">
<path d="M11.6328 9.94922H9.89062V14.6875H8.71875V9.94922H7V9H11.6328V9.94922Z" fill="white"/>
<path d="M16.6094 9V12.7461C16.6094 13.3685 16.4141 13.8607 16.0234 14.2227C15.6354 14.5846 15.1042 14.7656 14.4297 14.7656C13.7656 14.7656 13.2383 14.5898 12.8477 14.2383C12.457 13.8867 12.2578 13.4036 12.25 12.7891V9H13.4219V12.7539C13.4219 13.1263 13.5104 13.3984 13.6875 13.5703C13.8672 13.7396 14.1146 13.8242 14.4297 13.8242C15.0885 13.8242 15.4232 13.4779 15.4336 12.7852V9H16.6094Z" fill="white"/>
<circle cx="12" cy="12" r="8.15" stroke="white" stroke-width="1.7"/>
</svg>
