<svg width="24" height="24" viewBox="0 0 24 24" fill="none" xmlns="http://www.w3.org/2000/svg">
<path d="M19.1579 8.64414C19.165 8.8025 19.1685 8.96159 19.1685 9.12142C19.1685 14.0015 15.4539 19.6289 8.66078 19.6291C6.57515 19.6291 4.63438 19.0178 3 17.9702C3.28897 18.0043 3.58309 18.0213 3.8809 18.0213C5.61127 18.0213 7.20367 17.431 8.46781 16.4404C6.85111 16.4104 5.48802 15.3427 5.01762 13.8753C5.24276 13.9185 5.47428 13.9421 5.71169 13.9421C6.04878 13.9421 6.37531 13.8966 6.68563 13.8119C4.99577 13.4736 3.72279 11.9802 3.72279 10.1919C3.72279 10.1752 3.72279 10.1602 3.72328 10.1447C4.22093 10.4214 4.79003 10.5879 5.39596 10.6065C4.40433 9.94487 3.7525 8.81379 3.7525 7.53246C3.7525 6.85583 3.9354 6.22192 4.25261 5.67614C6.07382 7.9108 8.79557 9.38044 11.865 9.53486C11.8016 9.26431 11.769 8.98246 11.769 8.69275C11.769 6.65402 13.423 5 15.4625 5C16.5248 5 17.4843 5.44904 18.1582 6.16692C18.9996 6.00095 19.7896 5.69357 20.5033 5.27055C20.2271 6.13255 19.6418 6.85583 18.8793 7.31322C19.6264 7.22385 20.3383 7.02572 21 6.7316C20.5058 7.47231 19.879 8.12292 19.1579 8.64414Z" fill="white"/>
</svg>
