<svg width="40" height="40" viewBox="0 0 40 40" fill="none" xmlns="http://www.w3.org/2000/svg">
<path fill-rule="evenodd" clip-rule="evenodd" d="M38 20C38 29.9411 29.9411 38 20 38C10.0589 38 2 29.9411 2 20C2 10.0589 10.0589 2 20 2C29.9411 2 38 10.0589 38 20ZM40 20C40 31.0457 31.0457 40 20 40C8.9543 40 0 31.0457 0 20C0 8.9543 8.9543 0 20 0C31.0457 0 40 8.9543 40 20ZM21.456 22.4994C21.8168 22.8758 21.9971 23.3855 21.9971 24.0286C21.9971 24.6481 21.7972 25.1422 21.3972 25.5108C20.9973 25.8715 20.4522 26.0519 19.7621 26.0519C18.9308 26.0519 18.2917 25.8048 17.8447 25.3108C17.4874 24.9024 17.2754 24.3513 17.2088 23.6574C17.1824 23.3825 16.9621 23.1581 16.6859 23.1581H14.2864C14.0102 23.1581 13.7845 23.3824 13.8011 23.658C13.8843 25.0353 14.3185 26.1587 15.1038 27.0282C15.99 27.9928 17.1301 28.5614 18.7378 28.7339V30.5653C18.7378 30.8406 18.9603 31.0641 19.2355 31.0653L20.8262 31.0725C21.1032 31.0738 21.3285 30.8496 21.3285 30.5725V28.7339C22.7871 28.5849 23.3185 28.083 24.1498 27.2517C24.9811 26.4205 25.3967 25.3382 25.3967 24.0051C25.3967 23.2914 25.2869 22.668 25.0674 22.1347C24.8478 21.5936 24.5302 21.1152 24.1145 20.6996C23.6989 20.2761 23.1892 19.8997 22.5853 19.5703C21.9815 19.2331 21.209 18.8763 20.2679 18.4998C19.3347 18.1234 18.6956 17.7548 18.3505 17.3941C18.0055 17.0333 17.8329 16.555 17.8329 15.959C17.8329 15.3159 18.0094 14.814 18.3623 14.4533C18.7152 14.0847 19.2132 13.9004 19.8562 13.9004C20.5071 13.9004 21.0247 14.1356 21.409 14.6062C21.7283 14.983 21.9176 15.5183 21.9769 16.2123C22.0004 16.4875 22.221 16.7118 22.4971 16.7118H24.8967C25.1729 16.7118 25.3986 16.4876 25.3822 16.2119C25.3046 14.9095 24.9173 13.8331 24.2204 12.9828C23.4362 12.0183 22.7165 11.4379 21.3285 11.2419V9.18924C21.3285 8.91309 21.1046 8.68924 20.8285 8.68924H19.2378C18.9616 8.68924 18.7378 8.91309 18.7378 9.18924V11.2066C17.334 11.3477 16.5507 11.8418 15.7038 12.6888C14.8568 13.5357 14.4333 14.6219 14.4333 15.9472C14.4333 16.7157 14.5549 17.3784 14.798 17.9352C15.0489 18.492 15.394 18.9782 15.8332 19.3938C16.2802 19.8016 16.8134 20.1663 17.433 20.4878C18.0525 20.8015 18.7897 21.1191 19.6445 21.4407C20.4993 21.7622 21.1031 22.1151 21.456 22.4994Z" fill="#E45363"/>
</svg>
