<svg width="40" height="40" viewBox="0 0 40 40" fill="none" xmlns="http://www.w3.org/2000/svg">
<path fill-rule="evenodd" clip-rule="evenodd" d="M24.6839 21.9795C25.0869 21.6018 25.1073 20.969 24.7295 20.5661C24.3518 20.1631 23.719 20.1427 23.3161 20.5205L21 22.6918V10C21 9.44772 20.5523 9 20 9C19.4477 9 19 9.44772 19 10L19 22.6918L16.6839 20.5205C16.281 20.1427 15.6482 20.1631 15.2705 20.5661C14.8927 20.969 14.9131 21.6018 15.3161 21.9795L19.3161 25.7295C19.7007 26.0902 20.2993 26.0902 20.6839 25.7295L24.6839 21.9795ZM31 23C31 22.4477 30.5523 22 30 22C29.4477 22 29 22.4477 29 23V29H11L11 23C11 22.4477 10.5523 22 10 22C9.44772 22 9 22.4477 9 23V30C9 30.5523 9.44772 31 10 31H30C30.5523 31 31 30.5523 31 30V23Z" fill="#E45363"/>
<circle cx="20" cy="20" r="19" stroke="#E45363" stroke-width="2"/>
</svg>
