<svg width="40" height="40" viewBox="0 0 40 40" fill="none" xmlns="http://www.w3.org/2000/svg">
<path d="M38.6667 20.0007C38.6667 30.31 30.3094 38.6673 20 38.6673C9.69073 38.6673 1.33337 30.31 1.33337 20.0007C1.33337 9.69134 9.69073 1.33398 20 1.33398C30.3094 1.33398 38.6667 9.69134 38.6667 20.0007Z" stroke="#E45363" stroke-width="2"/>
<path d="M30.0001 29.5814C30.3683 29.5814 30.6667 29.2829 30.6667 28.9147C30.6667 28.5465 30.3683 28.248 30.0001 28.248H10.0001C9.63189 28.248 9.33342 28.5465 9.33342 28.9147C9.33342 29.2829 9.63189 29.5814 10.0001 29.5814H30.0001Z" fill="#E45363" stroke="#E45363"/>
<path d="M10.6693 9.33333L29.3133 9.33333C29.5538 9.33321 29.7898 9.39824 29.9964 9.52132C30.203 9.6444 30.3724 9.82101 30.4868 10.0326C30.6012 10.2441 30.6563 10.4827 30.6462 10.723C30.636 10.9632 30.5611 11.1963 30.4294 11.3975L21.1066 25.6453C20.9853 25.8305 20.8199 25.9825 20.6252 26.0877C20.4304 26.1929 20.2127 26.248 19.9914 26.248C19.77 26.248 19.5521 26.1929 19.3574 26.0877C19.1627 25.9825 18.9973 25.8305 18.876 25.6453L9.55338 11.3975C9.4216 11.1963 9.34655 10.9632 9.33642 10.723C9.32629 10.4827 9.38138 10.2441 9.49576 10.0326C9.61014 9.82101 9.77956 9.6444 9.98616 9.52132C10.1928 9.39824 10.4288 9.33321 10.6693 9.33333ZM19.9867 24.8854C20.0977 24.8853 20.207 24.8575 20.3045 24.8044C20.4021 24.7513 20.4848 24.6746 20.5452 24.5814L29.224 11.2694C29.2895 11.1688 29.3267 11.0523 29.3315 10.9323C29.3364 10.8123 29.3089 10.6933 29.2516 10.5877C29.1944 10.4821 29.1097 10.3939 29.0065 10.3325C28.9033 10.2711 28.7855 10.2387 28.6654 10.2388L11.3092 10.2388C11.1893 10.239 11.0716 10.2715 10.9686 10.333C10.8656 10.3945 10.7812 10.4827 10.7241 10.5882C10.667 10.6937 10.6395 10.8127 10.6444 10.9326C10.6493 11.0525 10.6864 11.1689 10.7519 11.2694L19.4294 24.5814C19.4897 24.6744 19.5721 24.751 19.6694 24.804C19.7667 24.8571 19.8758 24.8851 19.9867 24.8854Z" fill="#E45363" stroke="#E45363"/>
</svg>
