<svg width="40" height="40" viewBox="0 0 40 40" fill="none" xmlns="http://www.w3.org/2000/svg">
<path d="M38.6667 20.0007C38.6667 30.31 30.3094 38.6673 20 38.6673C9.69073 38.6673 1.33337 30.31 1.33337 20.0007C1.33337 9.69134 9.69073 1.33398 20 1.33398C30.3094 1.33398 38.6667 9.69134 38.6667 20.0007Z" stroke="#E45363" stroke-width="2"/>
<path d="M19.9999 26.6673C23.6818 26.6673 26.6666 23.6825 26.6666 20.0007C26.6666 16.3188 23.6818 13.334 19.9999 13.334C16.318 13.334 13.3333 16.3188 13.3333 20.0007C13.3333 23.6825 16.318 26.6673 19.9999 26.6673Z" fill="#E45363"/>
<path opacity="0.2" d="M26.6667 26.6673C30.3486 26.6673 33.3333 23.6825 33.3333 20.0007C33.3333 16.3188 30.3486 13.334 26.6667 13.334C22.9848 13.334 20 16.3188 20 20.0007C20 23.6825 22.9848 26.6673 26.6667 26.6673Z" fill="#E45363"/>
<path opacity="0.2" d="M13.3333 26.6673C17.0152 26.6673 20 23.6825 20 20.0007C20 16.3188 17.0152 13.334 13.3333 13.334C9.65139 13.334 6.66663 16.3188 6.66663 20.0007C6.66663 23.6825 9.65139 26.6673 13.3333 26.6673Z" fill="#E45363"/>
</svg>
