<svg width="40" height="40" viewBox="0 0 40 40" fill="none" xmlns="http://www.w3.org/2000/svg">
<path d="M38.6667 20.0007C38.6667 30.31 30.3094 38.6673 20 38.6673C9.69073 38.6673 1.33337 30.31 1.33337 20.0007C1.33337 9.69134 9.69073 1.33398 20 1.33398C30.3094 1.33398 38.6667 9.69134 38.6667 20.0007Z" stroke="#E45363" stroke-width="2"/>
<path d="M30.0001 29.5833C30.3683 29.5833 30.6667 29.2849 30.6667 28.9167C30.6667 28.5485 30.3683 28.25 30.0001 28.25H10.0001C9.63189 28.25 9.33342 28.5485 9.33342 28.9167C9.33342 29.2849 9.63189 29.5833 10.0001 29.5833H30.0001Z" fill="#E45363" stroke="#E45363"/>
<path d="M29.3215 26.2507H10.6774C10.4369 26.2508 10.2009 26.1857 9.99431 26.0627C9.78771 25.9396 9.61829 25.763 9.50391 25.5514C9.38953 25.3399 9.33443 25.1013 9.34457 24.861C9.3547 24.6207 9.42958 24.3877 9.56136 24.1865L18.8841 9.93864C19.0054 9.7535 19.1708 9.60148 19.3656 9.49626C19.5603 9.39104 19.778 9.33594 19.9994 9.33594C20.2207 9.33594 20.4386 9.39104 20.6333 9.49626C20.828 9.60148 20.9935 9.7535 21.1147 9.93864L30.4373 24.1865C30.5691 24.3877 30.6442 24.6207 30.6543 24.861C30.6644 25.1013 30.6093 25.3399 30.495 25.5514C30.3806 25.763 30.2112 25.9396 30.0046 26.0627C29.798 26.1857 29.5619 26.2508 29.3215 26.2507ZM20.0041 10.6986C19.893 10.6987 19.7838 10.7265 19.6862 10.7796C19.5886 10.8327 19.5059 10.9094 19.4455 11.0026L10.7668 24.3146C10.7012 24.4152 10.664 24.5317 10.6592 24.6517C10.6543 24.7717 10.6819 24.8907 10.7391 24.9963C10.7963 25.1018 10.881 25.19 10.9842 25.2515C11.0874 25.3129 11.2053 25.3452 11.3254 25.3452H28.6815C28.8015 25.345 28.9191 25.3125 29.0221 25.251C29.1251 25.1895 29.2095 25.1013 29.2666 24.9958C29.3237 24.8902 29.3513 24.7712 29.3464 24.6514C29.3414 24.5315 29.3043 24.4151 29.2388 24.3146L20.5614 11.0026C20.5011 10.9096 20.4186 10.833 20.3213 10.7799C20.224 10.7269 20.1149 10.6989 20.0041 10.6986Z" fill="#E45363" stroke="#E45363"/>
</svg>
