<svg width="40" height="40" viewBox="0 0 40 40" fill="none" xmlns="http://www.w3.org/2000/svg">
<path d="M20 40C31.0457 40 40 31.0457 40 20C40 8.9543 31.0457 0 20 0C8.9543 0 0 8.9543 0 20C0 31.0457 8.9543 40 20 40Z" fill="url(#paint0_linear)"/>
<path d="M28.7526 27.9691L21.9897 11.6186C21.6082 10.7732 21.0412 10.3608 20.2938 10.3608H19.6959C18.9484 10.3608 18.3814 10.7732 18 11.6186L15.0567 18.7423H12.8299C12.1649 18.7474 11.6237 19.2835 11.6185 19.9536V19.9691C11.6237 20.634 12.1649 21.1753 12.8299 21.1804H14.0258L11.2165 27.9691C11.1649 28.1186 11.134 28.2732 11.134 28.433C11.134 28.8145 11.2526 29.1134 11.4639 29.3454C11.6752 29.5773 11.9794 29.6908 12.3608 29.6908C12.6134 29.6856 12.8557 29.6083 13.0567 29.4588C13.2732 29.3093 13.4227 29.0928 13.5412 28.8454L16.634 21.1753H18.7783C19.4433 21.1701 19.9845 20.634 19.9897 19.9639V19.933C19.9845 19.2681 19.4433 18.7268 18.7783 18.7217H17.634L19.9948 12.8402L26.4278 28.8402C26.5464 29.0877 26.6959 29.3042 26.9124 29.4536C27.1134 29.6031 27.3608 29.6804 27.6082 29.6856C27.9897 29.6856 28.2886 29.5722 28.5051 29.3402C28.7216 29.1083 28.835 28.8093 28.835 28.4279C28.8402 28.2732 28.8144 28.1134 28.7526 27.9691Z" fill="white"/>
<defs>
<linearGradient id="paint0_linear" x1="34.9117" y1="7.45291" x2="5.15171" y2="32.4929" gradientUnits="userSpaceOnUse">
<stop stop-color="#B6509E"/>
<stop offset="1" stop-color="#2EBAC6"/>
</linearGradient>
</defs>
</svg>
