<svg width="40" height="40" viewBox="0 0 40 40" fill="none" xmlns="http://www.w3.org/2000/svg">
<path fill-rule="evenodd" clip-rule="evenodd" d="M20 0C31.044 0 40 8.956 40 20C40 31.044 31.044 40 20 40C8.956 40 0 31.044 0 20C0 8.956 8.956 0 20 0Z" fill="#1E1E1E"/>
<path d="M20.3 28.3599C13.904 28.3599 8.72 26.5119 8.72 24.0359C8.72 22.7439 10.132 21.5799 12.392 20.7599C14.156 21.8919 17.116 22.4719 20.472 22.4719C23.748 22.4719 26.644 21.7639 28.424 20.6799C30.556 21.4919 31.88 22.6239 31.88 23.8719C31.88 26.3519 26.696 28.3599 20.3 28.3599Z" fill="white"/>
<path d="M20.368 21.916C15.52 21.916 11.588 20.396 11.588 18.52C11.588 17.48 12.8 16.548 14.7 15.928C16.056 16.636 18.088 17.088 20.368 17.088C22.648 17.088 24.68 16.636 26.036 15.928C27.94 16.552 29.148 17.48 29.148 18.52C29.152 20.396 25.22 21.916 20.368 21.916V21.916Z" fill="white"/>
<path d="M20.336 16.5238C16.588 16.5238 13.548 15.2678 13.548 13.7238C13.548 12.1798 16.588 10.9238 20.336 10.9238C24.084 10.9238 27.124 12.1798 27.124 13.7238C27.124 15.2678 24.084 16.5238 20.336 16.5238V16.5238Z" fill="white"/>
</svg>
