<svg width="40" height="40" viewBox="0 0 40 40" fill="none" xmlns="http://www.w3.org/2000/svg">
<circle cx="20" cy="20" r="20" fill="white"/>
<g clip-path="url(#clip0)">
<path fill-rule="evenodd" clip-rule="evenodd" d="M12.275 11.75C11.9 9.8 13.4 8 15.35 8C17.075 8 18.5 9.425 18.5 11.15V15.05C18.95 15.05 19.4 14.975 19.85 14.975C20.3 14.975 20.675 14.975 21.125 15.05V11.15C21.125 9.425 22.55 8 24.275 8C26.225 8 27.725 9.8 27.425 11.75L26.6 16.325C29.525 17.6 31.775 19.85 31.775 22.625V24.35C31.775 26.675 30.275 28.625 28.1 29.9C25.925 31.25 23.075 32 19.85 32C16.625 32 13.775 31.25 11.6 29.9C9.5 28.625 8 26.675 8 24.35V22.625C8 19.85 10.175 17.6 13.1 16.325L12.275 11.75ZM25.475 16.925L26.45 11.525C26.675 10.175 25.7 8.9 24.275 8.9C23.075 8.9 22.1 9.875 22.1 11.075V16.025C21.8 15.95 21.425 15.95 21.125 15.95C20.675 15.95 20.3 15.875 19.85 15.875C19.4 15.875 18.95 15.875 18.5 15.95C18.2 15.95 17.825 16.025 17.525 16.025V11.15C17.525 9.95 16.55 8.975 15.35 8.975C14 8.975 12.95 10.25 13.25 11.6L14.225 17C11.075 18.2 8.975 20.3 8.975 22.7V24.425C8.975 28.1 13.85 31.1 19.85 31.1C25.85 31.1 30.725 28.1 30.725 24.425V22.7C30.8 20.225 28.7 18.125 25.475 16.925Z" fill="#633001"/>
<path d="M30.8 24.35C30.8 28.025 25.925 31.025 19.925 31.025C13.925 31.025 9.04999 28.025 9.04999 24.35V22.625H30.875V24.35H30.8Z" fill="#FEDC90"/>
<path fill-rule="evenodd" clip-rule="evenodd" d="M13.25 11.6001C12.95 10.2501 14 8.9751 15.35 8.9751C16.55 8.9751 17.525 9.9501 17.525 11.1501V16.1001C18.275 16.0251 19.025 15.9501 19.85 15.9501C20.6 15.9501 21.35 16.0251 22.1 16.1001V11.1501C22.1 9.9501 23.075 8.9751 24.275 8.9751C25.625 8.9751 26.675 10.2501 26.45 11.6001L25.475 17.0001C28.625 18.2001 30.8 20.3001 30.8 22.7001C30.8 26.3751 25.925 29.3751 19.925 29.3751C13.925 29.3751 9.04999 26.3751 9.04999 22.7001C9.04999 20.3001 11.15 18.2001 14.3 17.0001L13.25 11.6001Z" fill="#D1884F"/>
<path d="M16.85 22.175C16.85 23.15 16.325 23.975 15.65 23.975C14.975 23.975 14.45 23.15 14.45 22.175C14.45 21.2 14.975 20.375 15.65 20.375C16.325 20.375 16.85 21.2 16.85 22.175Z" fill="#633001"/>
<path d="M25.175 22.175C25.175 23.15 24.65 23.975 23.975 23.975C23.3 23.975 22.775 23.15 22.775 22.175C22.775 21.2 23.3 20.375 23.975 20.375C24.65 20.375 25.175 21.2 25.175 22.175Z" fill="#633001"/>
</g>
<defs>
<clipPath id="clip0">
<rect width="23.775" height="24" fill="white" transform="translate(8 8)"/>
</clipPath>
</defs>
</svg>
