<svg width="40" height="40" viewBox="0 0 40 40" fill="none" xmlns="http://www.w3.org/2000/svg">
<g clip-path="url(#clip0)">
<path d="M30.0173 16.5685C30.5533 16.5685 30.9879 16.134 30.9879 15.598C30.9879 15.062 30.5533 14.6274 30.0173 14.6274C29.4813 14.6274 29.0468 15.062 29.0468 15.598C29.0468 16.134 29.4813 16.5685 30.0173 16.5685Z" fill="#262761"/>
<path d="M20.0347 0C8.94281 0 0 8.94281 0 20.0347C0 31.1265 8.94281 40.0693 20.0347 40.0693C31.1265 40.0693 40.0693 31.1265 40.0693 20.0347C40.0693 8.94281 31.0572 0 20.0347 0ZM29.1161 28.3536C26.7591 30.9879 23.3622 32.4437 19.896 32.4437C16.3605 32.4437 12.9636 30.9185 10.6066 28.2842C8.18024 25.5806 7.14038 22.1837 7.487 18.5789C8.11092 12.825 12.6863 8.24957 18.4402 7.55633C18.9255 7.487 19.4107 7.487 19.896 7.487C22.669 7.487 25.3033 8.38821 27.5217 10.1213C27.6603 10.1906 27.7296 10.3986 27.7296 10.5373C27.7296 10.7452 27.6603 10.8839 27.5217 11.0225L26.2045 12.201C26.0659 12.3397 25.8579 12.409 25.6499 12.409C25.5113 12.409 25.3033 12.3397 25.234 12.2704C23.6395 11.1612 21.7678 10.6066 19.896 10.6066C17.1924 10.6066 14.6274 11.7851 12.8943 13.7955C11.0919 15.8059 10.26 18.4402 10.6066 21.1438C11.0919 25.4419 14.5581 28.9081 18.8562 29.3934C19.2028 29.4627 19.5494 29.4627 19.9653 29.4627C22.461 29.4627 24.818 28.4922 26.6205 26.6898C26.7591 26.5511 26.9671 26.4818 27.175 26.4818C27.3137 26.4818 27.4523 26.5511 27.591 26.6205L29.0468 27.591C29.1854 27.6603 29.2548 27.799 29.3241 28.0069C29.2548 28.0763 29.1854 28.2149 29.1161 28.3536ZM30.0173 18.6482C28.3536 18.6482 26.9671 17.2617 26.9671 15.5979C26.9671 13.9341 28.3536 12.5477 30.0173 12.5477C31.6811 12.5477 33.0676 13.9341 33.0676 15.5979C33.0676 17.2617 31.6811 18.6482 30.0173 18.6482Z" fill="#262761"/>
</g>
<defs>
<clipPath id="clip0">
<rect width="40" height="40" fill="white"/>
</clipPath>
</defs>
</svg>
