<svg width="40" height="40" viewBox="0 0 40 40" fill="none" xmlns="http://www.w3.org/2000/svg">
<path d="M20 40C31.046 40 40 31.046 40 20C40 8.954 31.046 0 20 0C8.954 0 0 8.954 0 20C0 31.046 8.954 40 20 40Z" fill="#070A0E"/>
<path fill-rule="evenodd" clip-rule="evenodd" d="M11.554 26.7059C10.956 26.3399 10.59 25.6899 10.59 24.9899V21.0819C10.59 20.6179 10.968 20.2419 11.432 20.2439C11.58 20.2439 11.726 20.2839 11.854 20.3579L20.672 25.4999C21.188 25.7999 21.506 26.3519 21.506 26.9499V30.9979C21.508 31.5539 21.058 32.0059 20.502 32.0059C20.316 32.0059 20.132 31.9539 19.974 31.8579L11.554 26.7059ZM24.698 19.2879C25.214 19.5879 25.53 20.1419 25.532 20.7379V28.9539C25.532 29.1959 25.402 29.4199 25.19 29.5379L23.26 30.6239C23.236 30.6379 23.21 30.6479 23.182 30.6559V26.0939C23.182 25.5039 22.872 24.9559 22.364 24.6519L14.62 20.0199V14.8699C14.62 14.4059 14.998 14.0299 15.462 14.0319C15.61 14.0319 15.756 14.0719 15.884 14.1459L24.698 19.2879ZM28.558 13.2199C29.076 13.5199 29.394 14.0739 29.394 14.6719V26.6719C29.392 26.9179 29.256 27.1439 29.04 27.2619L27.21 28.2499V19.8959C27.21 19.3059 26.9 18.7599 26.396 18.4559L18.48 13.7079V8.82393C18.48 8.67593 18.52 8.52993 18.592 8.40193C18.826 8.00193 19.34 7.86593 19.74 8.09793L28.558 13.2199Z" fill="#00D395"/>
</svg>
