<svg width="40" height="40" viewBox="0 0 40 40" fill="none" xmlns="http://www.w3.org/2000/svg">
<circle cx="20" cy="20" r="20" fill="white"/>
<path d="M20.3958 8L10 14V26L20.3958 32L30.7917 26V14L20.3958 8ZM20.3958 8L10 14V26L20.3958 32L30.7917 26V14L20.3958 8Z" fill="white"/>
<path d="M24.5 27.3125H23.0208L21.25 25.6875V24.8542L23.0833 23.1042V20.3333L25.4792 18.7708L28.2083 20.8333L24.5 27.3125ZM18.375 22.9375L18.6458 20.3333L17.75 18H23.0417L22.1667 20.3333L22.4167 22.9375H20.375H18.375ZM19.5833 25.6875L17.8125 27.3333H16.3125L12.5833 20.8333L15.3333 18.7917L17.75 20.3333V23.1042L19.5833 24.8542V25.6875ZM16.2917 13.1875H24.4792L25.4583 17.3542H15.3333L16.2917 13.1875ZM20.3958 8L10 14V26L20.3958 32L30.7917 26V14L20.3958 8Z" fill="#03316C"/>
</svg>
