<svg width="40" height="40" viewBox="0 0 40 40" fill="none" xmlns="http://www.w3.org/2000/svg">
<path d="M20 0C31.0467 0 40 8.95509 40 20C40 31.0467 31.0467 40 20 40C8.95509 40 0 31.0458 0 20C0 8.95509 8.95509 0 20 0Z" fill="#F5AC37"/>
<path d="M20.7378 21.4123H28.3375C28.4995 21.4123 28.576 21.4123 28.5877 21.1999C28.6498 20.4268 28.6498 19.6492 28.5877 18.8752C28.5877 18.7249 28.513 18.6628 28.3501 18.6628H13.2254C13.0382 18.6628 12.9878 18.7249 12.9878 18.9004V21.1252C12.9878 21.4123 12.9878 21.4123 13.2875 21.4123H20.7378ZM27.739 16.0626C27.7605 16.0059 27.7605 15.9438 27.739 15.888C27.612 15.6117 27.4617 15.348 27.2871 15.1005C27.0243 14.6775 26.7147 14.2878 26.3619 13.9377C26.1954 13.7262 26.0028 13.5363 25.7868 13.3752C24.705 12.4545 23.4189 11.8029 22.0365 11.4753C21.339 11.3187 20.6262 11.244 19.9116 11.2503H13.1993C13.0121 11.2503 12.9869 11.325 12.9869 11.4879V15.9249C12.9869 16.1121 12.9869 16.1625 13.2245 16.1625H27.6489C27.6489 16.1625 27.774 16.1373 27.7992 16.0626H27.738H27.739ZM27.739 24.0124C27.5265 23.989 27.3123 23.989 27.0999 24.0124H13.238C13.0508 24.0124 12.9878 24.0124 12.9878 24.2626V28.6006C12.9878 28.8005 12.9878 28.8509 13.238 28.8509H19.638C19.944 28.8743 20.25 28.8527 20.5497 28.7888C21.4785 28.7222 22.392 28.5205 23.2632 28.1884C23.58 28.0786 23.886 27.9355 24.1749 27.7636H24.2622C25.7625 26.9833 26.9811 25.7575 27.7498 24.2527C27.7498 24.2527 27.8371 24.0637 27.739 24.0142V24.0124ZM10.4759 31.1V31.0253V28.1128V27.1255V24.1879C10.4759 24.025 10.4759 24.0007 10.2761 24.0007H7.56345C7.41314 24.0007 7.35104 24.0007 7.35104 23.8009V21.4258H10.2509C10.4129 21.4258 10.4759 21.4258 10.4759 21.2134V18.8635C10.4759 18.7132 10.4759 18.6763 10.2761 18.6763H7.56345C7.41314 18.6763 7.35104 18.6763 7.35104 18.4764V16.2768C7.35104 16.1391 7.35104 16.1022 7.55085 16.1022H10.2383C10.4255 16.1022 10.4759 16.1022 10.4759 15.8646V9.12716C10.4759 8.92735 10.4759 8.87695 10.7261 8.87695H20.1006C20.781 8.90395 21.4569 8.97865 22.1256 9.10196C23.5035 9.35666 24.8274 9.84896 26.0379 10.5519C26.8407 11.0244 27.5796 11.595 28.2376 12.252C28.7326 12.7659 29.179 13.3221 29.575 13.9143C29.9683 14.5146 30.295 15.1563 30.5515 15.8268C30.583 16.0014 30.7504 16.1193 30.925 16.0896H33.1624C33.4495 16.0896 33.4495 16.0896 33.4621 16.365V18.4152C33.4621 18.6151 33.3874 18.6655 33.1867 18.6655H31.4614C31.2868 18.6655 31.2364 18.6655 31.249 18.8905C31.3174 19.6519 31.3174 20.416 31.249 21.1774C31.249 21.3898 31.249 21.415 31.4875 21.415H33.4612C33.5485 21.5275 33.4612 21.64 33.4612 21.7534C33.4738 21.8983 33.4738 22.045 33.4612 22.1899V23.7028C33.4612 23.9152 33.3991 23.9782 33.211 23.9782H30.8485C30.6838 23.9467 30.5236 24.052 30.4858 24.2158C29.9233 25.6783 29.0233 26.9896 27.8604 28.0408C27.4356 28.4233 26.9892 28.7834 26.523 29.1155C26.0226 29.4035 25.5357 29.7032 25.0227 29.9408C24.0786 30.3656 23.0886 30.6788 22.0725 30.8777C21.1077 31.0505 20.1294 31.1288 19.1475 31.1153H10.4723V31.1027L10.4759 31.1Z" fill="#FEFEFD"/>
</svg>
