<svg width="40" height="40" viewBox="0 0 40 40" fill="none" xmlns="http://www.w3.org/2000/svg">
<path d="M20 38.2993C30.1064 38.2993 38.2993 30.1064 38.2993 20C38.2993 9.89356 30.1064 1.70068 20 1.70068C9.89359 1.70068 1.70071 9.89356 1.70071 20C1.70071 30.1064 9.89359 38.2993 20 38.2993Z" fill="#002352"/>
<path fill-rule="evenodd" clip-rule="evenodd" d="M20 3.40142C10.8329 3.40142 3.40142 10.8329 3.40142 20C3.40142 29.1671 10.8329 36.5986 20 36.5986C29.1671 36.5986 36.5986 29.1671 36.5986 20C36.5986 10.8329 29.1671 3.40142 20 3.40142ZM0 20C0 8.95431 8.95431 0 20 0C31.0457 0 40 8.95431 40 20C40 31.0457 31.0457 40 20 40C8.95431 40 0 31.0457 0 20Z" fill="#0066CC"/>
<path d="M9.74572 15.248H22.6678C22.6678 15.248 27.128 15.2063 24.0434 20.9587C24.0434 20.9587 21.7924 25.4606 16.2068 25.3772L19.2163 17.6907C19.2527 17.5995 19.2664 17.501 19.2564 17.4034C19.2464 17.3058 19.213 17.212 19.1589 17.1301C19.1049 17.0483 19.0318 16.9807 18.946 16.9331C18.8602 16.8855 18.7642 16.8594 18.6661 16.857L14.7061 16.7903L9.70404 28.962C9.70404 28.962 11.3714 29.1288 12.2885 29.0454L11.7882 30.2959H14.1476C14.213 30.2964 14.277 30.2767 14.3307 30.2393C14.3844 30.202 14.4253 30.149 14.4477 30.0875L14.8729 28.962L15.8733 28.8787L15.2897 30.2959H17.5907C17.6753 30.2965 17.7582 30.2713 17.8282 30.2236C17.8982 30.176 17.952 30.1081 17.9825 30.0291L18.6244 28.3784C18.6244 28.3784 25.6273 27.2113 28.7953 21.5423C28.7953 21.5423 33.0471 14.9562 28.045 12.6219C27.0702 12.1749 26.0277 11.8931 24.9604 11.7882L25.544 10.3459C25.5617 10.3031 25.5686 10.2567 25.5642 10.2106C25.5598 10.1644 25.5442 10.1201 25.5187 10.0815C25.4932 10.0428 25.4586 10.011 25.418 9.98878C25.3773 9.96657 25.3318 9.95467 25.2855 9.9541H23.1263L22.4594 11.7048H21.5423L22.0592 10.3459C22.0751 10.3024 22.0804 10.2558 22.0747 10.2098C22.069 10.1638 22.0524 10.1199 22.0263 10.0816C22.0002 10.0433 21.9654 10.0118 21.9248 9.98959C21.8841 9.96742 21.8387 9.95526 21.7924 9.9541H19.6248L18.9579 11.7048H12.2218C12.0407 11.7042 11.8629 11.7528 11.7073 11.8453C11.5517 11.9377 11.424 12.0707 11.3381 12.23L9.74572 15.248Z" fill="white"/>
</svg>
