<svg width="40" height="40" viewBox="0 0 40 40" fill="none" xmlns="http://www.w3.org/2000/svg">
<path d="M20 40C31.0457 40 40 31.0457 40 20C40 8.9543 31.0457 0 20 0C8.9543 0 0 8.9543 0 20C0 31.0457 8.9543 40 20 40Z" fill="white"/>
<g clip-path="url(#clip0)">
<path d="M20.3658 7.99997L20.205 8.54674V24.4126L20.3658 24.5732L27.7305 20.2199L20.3658 7.99997Z" fill="#343434"/>
<path d="M20.3659 7.99997L13.0012 20.2198L20.3659 24.5732V16.8724V7.99997Z" fill="#8C8C8C"/>
<path d="M20.3657 25.9683L20.2751 26.0788V31.7306L20.3657 31.9953L27.7349 21.6171L20.3657 25.9683Z" fill="#3C3C3B"/>
<path d="M20.3659 31.9949V25.9679L13.0012 21.6169L20.3659 31.9949Z" fill="#8C8C8C"/>
<path d="M20.3658 24.5729L27.7304 20.2197L20.3658 16.8722V24.5729Z" fill="#141414"/>
<path d="M13.0012 20.2196L20.3658 24.5728V16.8721L13.0012 20.2196Z" fill="#393939"/>
</g>
<defs>
<clipPath id="clip0">
<rect width="14.736" height="24" fill="white" transform="translate(13 8)"/>
</clipPath>
</defs>
</svg>
