<svg width="40" height="40" viewBox="0 0 40 40" fill="none" xmlns="http://www.w3.org/2000/svg">
<path d="M20 40C31.0457 40 40 31.0457 40 20C40 8.95431 31.0457 0 20 0C8.95431 0 0 8.95431 0 20C0 31.0457 8.95431 40 20 40Z" fill="url(#paint0_linear)"/>
<path d="M15.3077 29.1154C16.0769 29.8846 16.2692 31.359 16.2692 32H18.5769C18.5769 30.2692 18.1923 29.3077 17.2308 27.7692C16.4615 26.5385 15.8846 25.0769 15.6923 24.5H22.6154L23.9615 22.1923H15.6923L16.8462 20.2692H24.9231V17.9615H18.3846C19.7308 15.4615 21.2692 15.4615 25.8846 15.6539C29.5769 15.8077 31.3974 13.5385 31.8462 12.3846L29.7308 11.2308C28.3846 13.9231 26.4615 13.3462 22.4231 13.3462C19.1923 13.3462 17.7436 14.5 17.4231 15.0769C16.5256 16.5513 14.5 19.8462 13.5769 21.2308C12.6539 22.6154 12.9359 24.1154 13.1923 24.6923C13.5769 25.8462 14.5385 28.3462 15.3077 29.1154Z" fill="white"/>
<path d="M22.6154 7L24.5385 8.15385C23.3077 9.53846 23.8974 11.5513 24.3462 12.3846L26.2692 16.6154C27.0385 18.9231 26.5897 20.5256 26.2692 21.0385C25.6923 22.1923 23.9615 24.8846 22.6154 26.8077C21.2687 28.7315 18.9615 28.9231 17.8077 28.9231H13.3846C11.5385 28.9231 10.3077 30.2692 9.92308 31.0385L8 29.8846C9.38462 27.2692 12.165 26.6154 13.3846 26.6154H18C19.8462 26.6154 20.8846 25.4615 21.2692 24.8846L23.1923 21.8077C23.5769 21.2308 24.5385 19.9615 24.5385 18.7308C24.5385 17.5 23.3846 15.141 22.8077 14.1154C22.359 13.3462 21.4615 11.4231 21.4615 9.88462C21.4615 8.34615 22.2308 7.32051 22.6154 7Z" fill="white"/>
<defs>
<linearGradient id="paint0_linear" x1="2.98023e-07" y1="20" x2="40" y2="20" gradientUnits="userSpaceOnUse">
<stop stop-color="#DA4D7B"/>
<stop offset="1" stop-color="#F05948"/>
</linearGradient>
</defs>
</svg>
