<svg width="40" height="40" viewBox="0 0 40 40" fill="none" xmlns="http://www.w3.org/2000/svg">
<circle cx="20" cy="20" r="20" fill="white"/>
<path d="M14.7848 10.0013C20.5224 9.99956 26.2604 9.99956 31.9987 10.0013C32.0005 11.8559 32.0005 13.7102 31.9987 15.5642C26.261 15.566 20.523 15.566 14.7848 15.5642C14.783 13.7096 14.783 11.8553 14.7848 10.0013Z" fill="#02A6C2"/>
<path d="M8.0072 17.6571C9.85829 17.6475 11.7097 17.6475 13.5614 17.6571C13.571 19.5082 13.571 21.3596 13.5614 23.2113C11.7098 23.2209 9.85837 23.221 8.0072 23.2118C7.9976 21.3604 7.9976 19.5088 8.0072 17.6571Z" fill="#5FCADE"/>
<path d="M14.7891 17.657C18.9305 17.6482 23.0715 17.6482 27.2122 17.657C27.221 19.5081 27.221 21.3595 27.2122 23.2113C23.071 23.2199 18.93 23.2199 14.7891 23.2113C14.7805 21.3601 14.7805 19.5087 14.7891 17.657Z" fill="#5FCADE"/>
<path d="M14.7943 25.3144C16.6423 25.2943 18.4899 25.2943 20.3372 25.3144C20.3564 27.1612 20.3567 29.0088 20.3381 30.8574C18.4901 30.8756 16.6425 30.8753 14.7953 30.8564C14.7761 29.0098 14.7757 27.1624 14.7943 25.3144Z" fill="#ABEBF4"/>
</svg>
