<svg width="40" height="40" viewBox="0 0 40 40" fill="none" xmlns="http://www.w3.org/2000/svg">
<path d="M20 40C31.0457 40 40 31.0457 40 20C40 8.9543 31.0457 0 20 0C8.9543 0 0 8.9543 0 20C0 31.0457 8.9543 40 20 40Z" fill="#6747ED"/>
<path fill-rule="evenodd" clip-rule="evenodd" d="M19.7083 22.5833C16.75 22.5833 14.375 20.2083 14.375 17.25C14.375 14.2917 16.75 11.9167 19.7083 11.9167C22.6667 11.9167 25.0417 14.2917 25.0417 17.25C25.0417 20.2083 22.6667 22.5833 19.7083 22.5833ZM19.7083 9.25C24.125 9.25 27.7083 12.8333 27.7083 17.25C27.7083 21.6667 24.125 25.25 19.7083 25.25C15.2917 25.25 11.7083 21.6667 11.7083 17.25C11.7083 12.8333 15.2917 9.25 19.7083 9.25ZM27.3333 25.6667C27.875 26.2083 27.875 27.0417 27.3333 27.5417L22 32.875C21.4583 33.4167 20.625 33.4167 20.125 32.875C19.5833 32.3333 19.5833 31.5 20.125 31L25.4583 25.6667C25.9583 25.125 26.8333 25.125 27.3333 25.6667ZM30.4167 10.5833C30.4167 11.3333 29.8333 11.9167 29.0833 11.9167C28.3333 11.9167 27.75 11.3333 27.75 10.5833C27.75 9.83334 28.3333 9.25 29.0833 9.25C29.7917 9.25 30.4167 9.83334 30.4167 10.5833Z" fill="white"/>
</svg>
