<svg width="40" height="40" viewBox="0 0 40 40" fill="none" xmlns="http://www.w3.org/2000/svg">
<circle cx="20" cy="20" r="20" fill="white"/>
<g clip-path="url(#clip0)">
<path d="M22.2075 15.3819C22.2075 11.9382 20.5475 8.97127 19.276 7.99997C19.276 7.99997 19.1877 7.94699 19.1877 8.08827C19.0817 14.7461 15.7086 16.5651 13.8367 18.9845C9.54526 24.6004 13.5364 30.7461 17.5982 31.8763C19.8764 32.5121 17.0684 30.7461 16.7152 27.0375C16.2914 22.5342 22.2075 19.1081 22.2075 15.3819" fill="#282E5B"/>
<path d="M24.4327 17.6601C24.415 17.6424 24.3797 17.6424 24.3444 17.6601C24.3444 17.6601 24.3444 17.6601 24.3267 17.6778C24.2561 18.5078 23.3377 20.3091 22.1898 21.9515C18.287 27.5321 20.5121 30.2164 21.766 31.6645C22.4901 32.5122 21.766 31.6645 23.585 30.7992C23.7263 30.7285 27.117 28.9272 27.4879 24.8477C27.8587 20.8742 25.3333 18.3842 24.4327 17.6601" fill="#059BDC"/>
</g>
<defs>
<clipPath id="clip0">
<rect width="15.5408" height="24" fill="white" transform="translate(12 8)"/>
</clipPath>
</defs>
</svg>
