<svg width="40" height="40" viewBox="0 0 40 40" fill="none" xmlns="http://www.w3.org/2000/svg">
<circle cx="20" cy="20" r="20" fill="white"/>
<g clip-path="url(#clip0)">
<path d="M19.1588 19.9982L28.1074 25.124C28.1793 25.1672 28.2614 25.1905 28.3453 25.1915C28.4292 25.1924 28.5119 25.171 28.5848 25.1295C28.6577 25.0879 28.7182 25.0277 28.7601 24.955C28.802 24.8823 28.8238 24.7998 28.8233 24.7159V15.2734C28.8243 15.1894 28.8028 15.1066 28.7609 15.0337C28.719 14.9608 28.6582 14.9006 28.5851 14.8592C28.5119 14.8179 28.4289 14.797 28.3449 14.7987C28.2609 14.8004 28.1788 14.8246 28.1074 14.8689L19.1588 19.9982Z" fill="#31CB9E"/>
<path d="M27.9177 12.5995L21.8004 8.10018C21.7371 8.05155 21.6628 8.01925 21.584 8.00613C21.5052 7.99301 21.4245 7.99946 21.3488 8.02493C21.2731 8.05039 21.2048 8.09408 21.15 8.15215C21.0952 8.21021 21.0555 8.28087 21.0344 8.3579L18.8009 18.3803L27.864 13.3691C27.9329 13.3336 27.9916 13.281 28.0343 13.2162C28.0769 13.1514 28.1022 13.0768 28.1076 12.9994C28.113 12.9221 28.0983 12.8446 28.0651 12.7746C28.0318 12.7045 27.981 12.6442 27.9177 12.5995" fill="#31CB9E"/>
<path d="M21.7933 31.8926L27.9177 27.3933C27.9819 27.3482 28.0334 27.2873 28.0674 27.2165C28.1013 27.1457 28.1165 27.0674 28.1114 26.9891C28.1064 26.9108 28.0813 26.835 28.0386 26.7692C27.9959 26.7033 27.937 26.6495 27.8676 26.613L18.8009 21.6018L21.0344 31.6242C21.053 31.702 21.0906 31.7741 21.1438 31.8338C21.1971 31.8936 21.2643 31.9392 21.3396 31.9665C21.4148 31.9938 21.4957 32.002 21.5748 31.9904C21.654 31.9788 21.7291 31.9476 21.7933 31.8998" fill="#31CB9E"/>
<path d="M16.8322 19.8121L19.1588 8.93066C19.1766 8.84049 19.1671 8.74707 19.1314 8.66235C19.0958 8.57763 19.0357 8.50548 18.9588 8.45512C18.8819 8.40476 18.7918 8.3785 18.6999 8.37968C18.608 8.38086 18.5185 8.40944 18.4429 8.46176L12.4832 13.0327C12.3323 13.1485 12.2102 13.2975 12.1264 13.4683C12.0425 13.639 11.9993 13.8268 12 14.017V25.6143C11.9971 25.8069 12.0392 25.9976 12.1231 26.171C12.207 26.3444 12.3304 26.4958 12.4832 26.613L18.4143 31.1696C18.4899 31.2219 18.5793 31.2505 18.6712 31.2517C18.7631 31.2528 18.8533 31.2266 18.9302 31.1762C19.007 31.1259 19.0671 31.0537 19.1028 30.969C19.1384 30.8843 19.148 30.7909 19.1302 30.7007L16.8322 19.8121Z" fill="#31CB9E"/>
</g>
<defs>
<clipPath id="clip0">
<rect width="16.8233" height="24" fill="white" transform="translate(12 8)"/>
</clipPath>
</defs>
</svg>
