<svg width="40" height="40" viewBox="0 0 40 40" fill="none" xmlns="http://www.w3.org/2000/svg">
<g clip-path="url(#clip0)">
<path d="M17.1688 0.197366C21.1102 -0.360034 25.217 0.267365 28.7888 2.02697C32.853 4.00697 36.196 7.40557 38.1088 11.4922C39.8366 15.1438 40.3926 19.3228 39.7288 23.3018C39.0652 27.3632 37.092 31.1948 34.1796 34.1092C31.385 36.931 27.724 38.893 23.8176 39.6378C19.776 40.4178 15.4914 39.9352 11.7454 38.2256C7.5686 36.3436 4.0904 32.9768 2.0696 28.873C0.171397 25.0714 -0.434603 20.655 0.309597 16.4786C1.0072 12.4768 2.98 8.71777 5.86 5.85097C8.8852 2.81177 12.9168 0.789766 17.1688 0.197366ZM17.1612 4.69617C13.6254 5.33617 10.35 7.26297 8.0562 10.0224C5.8352 12.6642 4.54 16.06 4.4478 19.5076C4.3376 22.7418 5.2666 26.001 7.0846 28.6828C9.1646 31.7946 12.4108 34.1164 16.0446 35.0538C19.7858 36.041 23.8974 35.5762 27.308 33.7442C30.7312 31.9322 33.4256 28.8004 34.6902 25.1442C35.9572 21.5442 35.837 17.4786 34.3472 13.9642C32.9774 10.6842 30.4382 7.90817 27.2906 6.24857C24.22 4.60117 20.5844 4.06377 17.1612 4.69617V4.69617Z" fill="#EDA735"/>
<path d="M13.8708 10.0201C15.228 10.0151 16.5852 10.0151 17.9424 10.0201C17.945 12.0401 17.9374 14.0567 17.945 16.076C19.525 16.0834 21.1026 16.0736 22.6828 16.081C22.6853 16.9333 22.6853 17.7866 22.6828 18.641C21.1028 18.646 19.5228 18.6386 17.945 18.646C17.9399 19.4934 17.9399 20.3406 17.945 21.1878C19.52 21.1854 21.0952 21.1902 22.6702 21.1854C22.6928 22.0376 22.6828 22.89 22.6852 23.7454C21.1052 23.7578 19.5226 23.7454 17.9424 23.7528C17.9398 24.6928 17.9398 25.6348 17.945 26.5746C21.313 26.5796 24.6802 26.5804 28.0466 26.577C28.0542 27.7118 28.0516 28.8464 28.0492 29.9836C23.324 29.9812 18.5962 29.9886 13.871 29.9786C13.871 27.9041 13.871 25.8288 13.871 23.7526C13.23 23.7526 12.5888 23.7476 11.9478 23.7476C11.9453 22.8954 11.9461 22.0431 11.9504 21.1908C12.589 21.1884 13.2304 21.1858 13.8686 21.1884C13.8737 20.3387 13.8737 19.4906 13.8686 18.644C13.2276 18.6464 12.5886 18.6416 11.9486 18.639C11.946 17.7868 11.946 16.937 11.946 16.0846C12.587 16.0822 13.2282 16.0772 13.8692 16.0772C13.8758 14.0591 13.8708 12.0401 13.8708 10.0201" fill="#EDA735"/>
<path d="M17.1612 4.69608C20.5844 4.06368 24.2212 4.60108 27.2904 6.24828C30.4381 7.90828 32.9773 10.6847 34.3471 13.9639C35.8371 17.4781 35.9573 21.5439 34.6901 25.1439C33.4255 28.8005 30.7311 31.9323 27.3078 33.7439C23.8972 35.5759 19.7854 36.0409 16.0444 35.0535C12.411 34.1163 9.16562 31.7935 7.08442 28.6825C5.26681 25.9999 4.33761 22.7417 4.44781 19.5075C4.54001 16.0599 5.83521 12.6641 8.05622 10.0223C10.35 7.26228 13.6254 5.33588 17.1612 4.69608V4.69608ZM13.8708 10.0199C13.8708 12.0399 13.8758 14.0599 13.8682 16.0759C13.2272 16.0759 12.586 16.0809 11.945 16.0833C11.945 16.9355 11.945 17.7853 11.9476 18.6377C12.5886 18.6401 13.2276 18.6451 13.8676 18.6427C13.8727 19.49 13.8727 20.3382 13.8676 21.1871C13.229 21.1847 12.5876 21.1871 11.9494 21.1895C11.9444 22.0418 11.9435 22.894 11.9468 23.7463C12.5878 23.7463 13.229 23.7513 13.87 23.7513C13.8726 25.8258 13.8726 27.9012 13.87 29.9773C18.5952 29.9873 23.323 29.9797 28.0482 29.9823C28.0508 28.8451 28.0532 27.7103 28.0456 26.5757C24.6776 26.5757 21.3104 26.5749 17.944 26.5733C17.939 25.6333 17.939 24.6913 17.9414 23.7515C19.5214 23.7441 21.104 23.7565 22.6842 23.7441C22.6816 22.8893 22.6918 22.0371 22.6692 21.1841C21.0942 21.1891 19.519 21.1841 17.944 21.1865C17.939 20.3391 17.939 19.4919 17.944 18.6447C19.5216 18.6373 21.1016 18.6447 22.6818 18.6397C22.6844 17.7849 22.6844 16.9316 22.6818 16.0797C21.1018 16.0723 19.5242 16.0821 17.944 16.0747C17.9364 14.0547 17.944 12.0381 17.9414 10.0187C16.5849 10.0144 15.228 10.0148 13.8708 10.0199" fill="#231F20"/>
</g>
<defs>
<clipPath id="clip0">
<rect width="40" height="40" fill="white"/>
</clipPath>
</defs>
</svg>
