<svg width="40" height="40" viewBox="0 0 40 40" fill="none" xmlns="http://www.w3.org/2000/svg">
<path d="M20 40C31.0457 40 40 31.0457 40 20C40 8.95431 31.0457 0 20 0C8.95431 0 0 8.95431 0 20C0 31.0457 8.95431 40 20 40Z" fill="url(#paint0_linear)"/>
<path d="M10.156 26V16.5866L17.2947 21.9593V26H19.1167V21.58C19.1163 21.4157 19.0779 21.2538 19.0045 21.1069C18.931 20.96 18.8245 20.8321 18.6933 20.7333L10.036 14.2153C9.87766 14.0977 9.6898 14.0263 9.49331 14.009C9.29682 13.9918 9.09939 14.0293 8.92297 14.1176C8.74655 14.2058 8.59804 14.3412 8.49395 14.5087C8.38986 14.6763 8.33426 14.8694 8.33334 15.0666V26H10.156ZM29.8987 26V16.5866L22.76 21.9593V26H20.938V21.58C20.9383 21.4157 20.9767 21.2538 21.0502 21.1069C21.1236 20.96 21.2302 20.8321 21.3613 20.7333L30.0187 14.218C30.1768 14.1005 30.3645 14.0291 30.5607 14.0117C30.757 13.9944 30.9542 14.0317 31.1305 14.1196C31.3069 14.2075 31.4554 14.3425 31.5597 14.5097C31.664 14.6768 31.7199 14.8696 31.7213 15.0666V26H29.8987Z" fill="white"/>
<defs>
<linearGradient id="paint0_linear" x1="20" y1="0" x2="20" y2="40" gradientUnits="userSpaceOnUse">
<stop stop-color="#4FA89B"/>
<stop offset="1" stop-color="#6ACEBB"/>
</linearGradient>
</defs>
</svg>
