<svg width="40" height="40" viewBox="0 0 40 40" fill="none" xmlns="http://www.w3.org/2000/svg">
<circle cx="20" cy="20" r="20" fill="white"/>
<path d="M20 18.8679C23.0011 18.8679 25.434 16.4351 25.434 13.434C25.434 10.4329 23.0011 8 20 8C16.9989 8 14.566 10.4329 14.566 13.434C14.566 16.4351 16.9989 18.8679 20 18.8679Z" fill="#88BDF3"/>
<path d="M20 32C23.0011 32 25.434 29.5671 25.434 26.566C25.434 23.5649 23.0011 21.1321 20 21.1321C16.9989 21.1321 14.566 23.5649 14.566 26.566C14.566 29.5671 16.9989 32 20 32Z" fill="#3075EE"/>
<path d="M26.566 25.4338C29.5671 25.4338 32 23.001 32 19.9999C32 16.9988 29.5671 14.5659 26.566 14.5659C23.5649 14.5659 21.1321 16.9988 21.1321 19.9999C21.1321 23.001 23.5649 25.4338 26.566 25.4338Z" fill="#5795F1"/>
<path d="M13.434 25.4338C16.4351 25.4338 18.8679 23.001 18.8679 19.9999C18.8679 16.9988 16.4351 14.5659 13.434 14.5659C10.4329 14.5659 8 16.9988 8 19.9999C8 23.001 10.4329 25.4338 13.434 25.4338Z" fill="#205FEC"/>
<path d="M18.7208 18.7208C17.7522 18.4853 16.8671 17.9879 16.1623 17.2831C15.4574 16.5783 14.96 15.6932 14.7245 14.7246C15.6914 14.9637 16.5746 15.4623 17.2788 16.1665C17.9831 16.8708 18.4817 17.754 18.7208 18.7208V18.7208Z" fill="#134BEF"/>
<path d="M14.7132 25.287C14.9487 24.3184 15.4461 23.4333 16.1509 22.7285C16.8558 22.0237 17.7409 21.5263 18.7094 21.2908C18.4703 22.2576 17.9718 23.1408 17.2675 23.8451C16.5633 24.5493 15.6801 25.0479 14.7132 25.287V25.287Z" fill="#0932E8"/>
<path d="M21.2792 21.2793C22.2478 21.5148 23.1329 22.0122 23.8377 22.717C24.5426 23.4218 25.04 24.307 25.2755 25.2755C24.3086 25.0364 23.4254 24.5379 22.7212 23.8336C22.0169 23.1293 21.5183 22.2461 21.2792 21.2793V21.2793Z" fill="#164BEA"/>
<path d="M25.2868 14.7131C25.0513 15.6817 24.5539 16.5668 23.8491 17.2716C23.1442 17.9765 22.2591 18.4738 21.2906 18.7094C21.5297 17.7425 22.0282 16.8593 22.7325 16.1551C23.4367 15.4508 24.3199 14.9522 25.2868 14.7131Z" fill="#3170F1"/>
</svg>
