<svg width="40" height="40" viewBox="0 0 40 40" fill="none" xmlns="http://www.w3.org/2000/svg">
<circle cx="20" cy="20" r="20" fill="white"/>
<path d="M30.9116 26.9195C32.3574 28.8594 33.8483 30.8444 35.3393 32.8294C32.3574 36.3483 28.6526 38.604 24.1798 39.5514C19.2099 40.5891 14.5112 39.8221 9.94799 37.2957C14.0142 34.2731 17.9901 31.2955 22.0111 28.318C22.9147 29.1752 23.7731 30.0323 24.6316 30.8444C25.5804 31.7467 25.2189 31.7918 26.4388 31.1151C28.1104 30.1677 29.511 28.8594 30.5954 27.2804C30.6405 27.1902 30.7309 27.0999 30.7761 27.0097C30.7309 27.0097 30.7761 27.0097 30.9116 26.9195V26.9195ZM13.1558 30.8895C12.0263 31.7467 10.9871 32.5136 9.94799 33.3257C9.17993 33.9122 8.41187 34.4535 7.6438 35.04C7.32754 35.3107 7.10164 35.3107 6.7402 34.9949C3.3065 31.9271 1.13785 28.1375 0.324602 23.6261C-0.488643 19.0696 0.234241 14.7386 2.40289 10.6332C2.44807 10.543 2.53843 10.4077 2.58361 10.3174C2.58361 10.2723 2.62879 10.2723 2.71915 10.2272C5.70105 14.1521 8.72813 18.0771 11.71 22.002C11.6197 22.1374 11.5745 22.2276 11.4841 22.3178C10.5805 23.2652 9.67691 24.2126 8.72813 25.1149C8.45705 25.3856 8.41186 25.6112 8.59259 25.927C9.54137 27.7315 10.8516 29.2203 12.4781 30.4384C12.704 30.5737 12.8847 30.7091 13.1558 30.8895V30.8895ZM30.008 2.87359C28.5623 3.91122 27.1165 4.94884 25.6707 5.94136C23.1858 7.70081 20.7009 9.50538 18.2612 11.2648C17.9449 11.4904 17.719 11.5355 17.4479 11.2197C16.6347 10.3626 15.7762 9.59561 14.963 8.73844C14.7371 8.51287 14.5112 8.46775 14.1949 8.6031C12.2522 9.59561 10.7161 10.9941 9.45101 12.7536C9.36065 12.8438 9.27029 12.9792 9.17993 13.1145C8.45705 12.1671 7.77934 11.3099 7.10164 10.4077C6.37875 9.46027 5.70105 8.51287 5.02335 7.61058C4.79745 7.29478 4.75227 7.06921 5.06853 6.75341C8.54741 2.9187 12.8395 0.662994 17.9901 0.121624C22.0563 -0.329519 25.9418 0.482537 29.5562 2.42245C29.6918 2.51268 29.8273 2.55779 29.9628 2.64802C29.9628 2.78336 29.9628 2.82848 30.008 2.87359V2.87359ZM37.3724 29.9421C36.4236 28.724 35.5652 27.5962 34.7068 26.4683C32.7188 23.8517 30.7309 21.19 28.6978 18.5733C28.4267 18.2124 28.4267 17.9869 28.743 17.6711C29.6014 16.8139 30.4146 15.9567 31.2731 15.0995C31.499 14.874 31.5893 14.6484 31.4086 14.3326C30.4146 12.4378 29.0592 10.8588 27.2972 9.59561C27.1617 9.50538 27.0261 9.37004 26.8454 9.27981C26.9809 9.14447 27.1165 9.05424 27.2068 8.96401C28.9237 7.6557 30.6405 6.3925 32.3574 5.08419C32.6285 4.85862 32.8544 4.76839 33.1706 5.08419C37.4628 8.96401 39.7669 13.7912 39.9929 19.611C40.0832 22.9945 39.3151 26.1976 37.779 29.2203C37.6435 29.4007 37.5079 29.6263 37.3724 29.9421V29.9421Z" fill="#231815"/>
</svg>
