<svg width="40" height="40" viewBox="0 0 40 40" fill="none" xmlns="http://www.w3.org/2000/svg">
<circle cx="20" cy="20" r="20" fill="white"/>
<g clip-path="url(#clip0)">
<path d="M13.4545 28.8289C14.1663 29.6397 15.032 30.3012 16.0014 30.7748C16.9707 31.2485 18.0245 31.525 19.1016 31.5882C20.3884 31.5199 21.6024 30.9702 22.5027 30.0481C24.2783 28.5273 26.1425 27.1131 28.0855 25.8128L29.1765 25.3636C29.6257 25.1711 30.3957 24.7219 31.1016 23.8877C31.8716 22.861 32 21.7701 32 21.385C31.9147 20.1707 31.5168 18.9991 30.8449 17.984C29.0917 21.1079 26.5791 23.7393 23.5395 25.6349C20.4998 27.5305 17.0312 28.629 13.4545 28.8289Z" fill="#0293D6"/>
<path d="M15.8931 10.6043C16.3721 10.0983 16.9491 9.6951 17.589 9.41929C18.2289 9.14348 18.9182 9.00082 19.615 9C20.0564 8.97044 20.4994 9.02897 20.918 9.17219C21.3367 9.31541 21.7226 9.54045 22.0535 9.83422C23.8942 11.1383 26.0867 11.8542 28.3422 11.8877C28.9198 11.9519 30.0749 12.1444 30.8449 13.107C31.4225 13.877 31.4866 14.7112 31.4866 15.0963C31.4349 16.0878 31.2181 17.0638 30.8449 17.984L15.8931 10.6043Z" fill="#EBE638"/>
<path d="M13.4545 28.8289C12.877 28.7647 12.107 28.5722 11.2086 28.1872C10.3102 27.8021 9.21925 27.3529 8.51337 26.1337C8.06417 25.3636 8 24.5936 8 24.0802C8.01567 22.7188 8.34506 21.3792 8.96257 20.1658C9.57693 18.6659 9.98702 17.0903 10.1818 15.4813L10.5027 14.1979C10.6952 13.5562 10.8235 12.9144 11.2727 12.2727L11.9786 11.5027C13.1445 10.7697 14.5242 10.453 15.893 10.6043C14.0602 13.2263 12.8822 16.2493 12.458 19.4201C12.0337 22.5909 12.3754 25.8173 13.4545 28.8289Z" fill="#BAD147"/>
<path d="M15.8931 10.6043C15.8289 10.6043 19.3583 10.7968 21.5401 11.5668L23.3369 12.3369C22.631 12.2727 18.1391 12.0802 14.738 15.4813C10.4385 19.8449 11.8503 25.8128 11.9145 26.1337C10.9181 24.8801 10.4158 23.3048 10.5027 21.7059C10.5872 19.5838 11.1096 17.5021 12.0373 15.5916C12.9649 13.6811 14.2777 11.9831 15.8931 10.6043Z" fill="#78B650"/>
<path d="M24.492 26.4545C25.706 24.2477 26.2438 21.7323 26.0384 19.2219C25.8331 16.7116 24.8935 14.3171 23.3369 12.3369C25.1957 12.6477 26.9054 13.5475 28.2139 14.9037C28.984 15.5455 29.9465 16.508 30.8449 17.984C29.5761 21.3543 27.3722 24.2928 24.492 26.4545Z" fill="#2F8260"/>
<path d="M26.5455 15.1604C25.5187 13.4278 24.0428 12.6578 23.4011 12.3369C22.8877 12.2086 18.0749 11.4385 14.4171 14.9679C11.4652 17.7914 11.2727 21.4492 11.2727 22.1551C11.2863 24.5735 12.0985 26.9196 13.5829 28.8289C15.4905 29.1962 17.4507 29.1962 19.3583 28.8289C20.3209 28.6364 22.5669 28.2513 24.492 26.5829C24.7487 26.3262 27.5722 23.6952 27.7647 19.5241C27.7647 18.8182 27.7647 17.0214 26.5455 15.1604ZM24.2353 24.4652C23.6394 25.1135 22.9153 25.6307 22.1088 25.9842C21.3024 26.3378 20.4313 26.5198 19.5508 26.5187C19.1658 26.5187 16.5989 26.4546 14.8021 24.3369C14.5455 24.016 13.262 22.4759 13.3262 20.1658C13.4546 17.0856 15.8931 15.2888 16.4064 14.9037C16.8556 14.5829 17.9465 13.877 19.5508 13.8128C19.9358 13.7487 21.2834 13.6845 22.631 14.4545C25.5829 16.0588 25.7112 19.9091 25.7112 20.1658C25.7112 20.8717 25.7112 22.7968 24.2353 24.4652Z" fill="#085229"/>
</g>
<defs>
<clipPath id="clip0">
<rect width="24" height="22.5882" fill="white" transform="translate(8 9)"/>
</clipPath>
</defs>
</svg>
