<svg width="40" height="40" viewBox="0 0 40 40" fill="none" xmlns="http://www.w3.org/2000/svg">
<circle cx="20" cy="20" r="20" fill="white"/>
<path fill-rule="evenodd" clip-rule="evenodd" d="M12.2901 13.06L14.06 12.0435L14.2984 12.4528L20.8223 8.6904L20.3456 8.41604L19.8666 8.13718L19.6282 8L9 14.1394V14.4138L12.0517 12.6484L12.2901 13.06Z" fill="#001C3A"/>
<path fill-rule="evenodd" clip-rule="evenodd" d="M12.2901 16.9258L17.404 13.9708L17.6424 14.3868L24.1664 10.6222L23.6897 10.3433L23.2106 10.069L22.9723 9.93402L9 18.0007V18.2751L12.0517 16.5097L12.2901 16.9258Z" fill="#001C3A"/>
<path fill-rule="evenodd" clip-rule="evenodd" d="M12.2901 18.8576L19.075 14.94L19.3156 15.3516L25.8373 11.5825L25.3606 11.3126L24.8838 11.0337L24.6432 10.8965L9 19.928V20.2069L12.0517 18.4438L12.2901 18.8576Z" fill="#001C3A"/>
<path fill-rule="evenodd" clip-rule="evenodd" d="M12.2901 20.7871L20.7954 15.8778L21.036 16.2894L27.5105 12.5517L27.0337 12.2729L26.5547 11.9985L26.3163 11.8613L9 21.8621V22.1364L12.0517 20.3711L12.2901 20.7871Z" fill="#001C3A"/>
<path fill-rule="evenodd" clip-rule="evenodd" d="M12.2901 22.7144L22.4685 16.8404L22.7069 17.2564L29.1814 13.5143L28.7046 13.2422L28.2279 12.9633L27.9873 12.8261L9 23.7894V24.0637L12.0517 22.3029L12.2901 22.7144Z" fill="#001C3A"/>
<path fill-rule="evenodd" clip-rule="evenodd" d="M29.8988 13.9303L29.6604 13.7908L9 25.7234V25.9977L12.0517 24.2369L12.2901 24.6484L22.4685 18.7743L22.7069 19.1859L30.2564 14.8298V14.2766V14.1394L29.8988 13.9303Z" fill="#001C3A"/>
<path fill-rule="evenodd" clip-rule="evenodd" d="M10.3088 27.1694L12.0202 26.1821L12.2586 26.5937L22.419 20.7286L22.6574 21.1446L30.2564 16.7571V16.2039V15.6506V15.3763L10.075 27.0322L10.3088 27.1694Z" fill="#001C3A"/>
<path fill-rule="evenodd" clip-rule="evenodd" d="M22.419 22.6627L22.6574 23.0787L30.2564 18.6912V18.138V17.5847V17.3104L11.7459 27.997L11.9865 28.1342L13.7226 27.129L13.9633 27.545" fill="#001C3A"/>
<path fill-rule="evenodd" clip-rule="evenodd" d="M13.6574 29.1012L15.3958 28.0937L15.6342 28.5097L22.419 24.5899L22.6574 25.006L30.2564 20.6184V20.0652V19.5165V19.2399L13.4146 28.9595L13.6574 29.1012Z" fill="#001C3A"/>
<path fill-rule="evenodd" clip-rule="evenodd" d="M15.3283 30.066L17.0667 29.063L17.3073 29.4745L22.419 26.524L22.6574 26.9356L30.2564 22.548V21.9993V21.4461V21.1717L15.09 29.9288L15.3283 30.066Z" fill="#001C3A"/>
<path fill-rule="evenodd" clip-rule="evenodd" d="M16.7631 30.8935L17.0015 31.0307L18.7444 30.0255L18.9783 30.4415L22.419 28.4513L22.6574 28.8673L30.2564 24.4797V23.9265V23.3733V23.0989L16.7631 30.8935Z" fill="#001C3A"/>
<path fill-rule="evenodd" clip-rule="evenodd" d="M18.6724 32L20.4108 30.9902L20.6492 31.4063L22.419 30.3808L22.6574 30.7968L30.2564 26.4138V25.8605V25.3073V25.033L18.434 31.8628L18.6724 32Z" fill="#001C3A"/>
<path fill-rule="evenodd" clip-rule="evenodd" d="M22.4955 9.65519L22.0165 9.38082L21.5397 9.10646L21.3013 8.96478L9 16.0667V16.3411L12.0517 14.5825L12.2901 14.9918L15.7309 13.006L15.976 13.4221L22.4955 9.65519Z" fill="#001C3A"/>
</svg>
