<svg width="55" height="55" viewBox="0 0 55 55" fill="none" xmlns="http://www.w3.org/2000/svg">
<path d="M17.3205 44.641C26.8864 50.1639 39.1182 46.8864 44.641 37.3205C50.1639 27.7547 46.8864 15.5228 37.3205 10C27.7547 4.47715 15.5228 7.75466 10 17.3205C4.47715 26.8864 7.75466 39.1182 17.3205 44.641Z" fill="#87888C"/>
<path d="M36.3872 24.6166C36.7711 21.9515 34.7768 20.6558 32.037 19.6513L32.921 16.1202L30.7682 15.5989L29.9467 19.0218C29.4512 18.88 28.7849 18.784 28.1812 18.5798L29.0651 15.0487L26.9123 14.5275L26.0284 18.0586C25.5328 17.9168 25.1456 17.8376 24.6501 17.6958L21.6602 17.1243L21.0765 19.3854C21.0765 19.3854 22.7338 19.7649 22.6256 19.7024C23.5083 19.9234 23.6456 20.4356 23.6121 20.9937L22.5864 25.0203C22.5864 25.0203 22.6946 25.0828 22.8029 25.1453L22.5239 25.1285L21.1187 30.8124C20.9937 31.0289 20.7437 31.4619 20.0774 31.3659L18.5284 31.0489L17.4324 33.4473L20.1889 34.1727C20.6844 34.3145 21.18 34.4562 21.6755 34.598L20.7915 38.1291L22.9443 38.6503L23.8283 35.1192C24.432 35.3235 24.9276 35.4652 25.5938 35.5612L24.7098 39.0923L26.8627 39.6135L27.7466 36.0824C31.4027 36.7499 34.1638 36.4676 35.3725 33.124C36.3145 30.4925 35.3447 28.9222 33.3336 27.9054C35.0412 27.4479 36.0992 26.6154 36.3872 24.6166ZM31.4877 31.6028C30.8247 34.2511 26.3193 32.8046 24.7703 32.4876L25.9545 27.6865C27.441 28.1118 32.1049 28.7837 31.4877 31.6028ZM32.0771 24.5819C31.5391 27.0137 27.7457 25.834 26.4757 25.5337L27.5182 21.2281C28.7882 21.5283 32.7858 22.1043 32.0771 24.5819Z" fill="white"/>
</svg>
