<svg width="40" height="40" viewBox="0 0 40 40" fill="none" xmlns="http://www.w3.org/2000/svg">
<g clip-path="url(#clip0)">
<path fill-rule="evenodd" clip-rule="evenodd" d="M20.001 39.9993C31.017 39.9993 40.0009 31.0153 40.0009 19.9993C40.0009 8.98527 31.017 -0.000732422 20.001 -0.000732422C8.98699 -0.000732422 0.00100741 8.98527 0.00100741 19.9993C-0.000992583 31.0153 8.98499 39.9993 20.001 39.9993Z" fill="black"/>
<path fill-rule="evenodd" clip-rule="evenodd" d="M14.871 9.6333H17.751C17.861 9.6333 17.949 9.7233 17.949 9.8333V14.0413C17.949 14.1533 18.039 14.2413 18.149 14.2413H21.847C21.957 14.2413 22.047 14.1533 22.047 14.0413V9.8333C22.047 9.7233 22.135 9.6333 22.247 9.6333H25.125C25.235 9.6333 25.325 9.7233 25.325 9.8333V14.0413C25.325 14.1533 25.413 14.2413 25.525 14.2413H29.045C29.157 14.2413 29.245 14.3313 29.245 14.4413V17.3133C29.245 17.4253 29.157 17.5133 29.045 17.5133H25.525C25.413 17.5133 25.325 17.6033 25.325 17.7133V22.1833C25.325 22.2933 25.413 22.3833 25.525 22.3833H29.045C29.157 22.3833 29.245 22.4713 29.245 22.5833V25.4553C29.245 25.5653 29.157 25.6553 29.045 25.6553H25.525C25.413 25.6553 25.325 25.7453 25.325 25.8553V30.0633C25.325 30.1733 25.235 30.2633 25.125 30.2633H22.247C22.135 30.2633 22.047 30.1733 22.047 30.0633V25.8553C22.047 25.7433 21.957 25.6553 21.847 25.6553H18.151C18.041 25.6553 17.951 25.7453 17.951 25.8553V30.0633C17.951 30.1733 17.863 30.2633 17.753 30.2633H14.873C14.763 30.2633 14.673 30.1733 14.673 30.0633V25.8553C14.673 25.7433 14.585 25.6553 14.473 25.6553H10.953C10.841 25.6553 10.753 25.5653 10.753 25.4553V22.5833C10.753 22.4713 10.841 22.3833 10.953 22.3833H14.473C14.585 22.3833 14.673 22.2933 14.673 22.1833V17.7133C14.673 17.6033 14.585 17.5133 14.473 17.5133H10.953C10.841 17.5133 10.753 17.4253 10.753 17.3133V14.4413C10.753 14.3313 10.841 14.2413 10.953 14.2413H14.473C14.585 14.2413 14.673 14.1533 14.673 14.0413V9.8333C14.669 9.7233 14.761 9.6333 14.871 9.6333ZM22.049 22.1853V17.7133C22.049 17.6033 21.959 17.5133 21.849 17.5133H18.151C18.041 17.5133 17.951 17.6033 17.951 17.7133V22.1833C17.951 22.2933 18.041 22.3833 18.151 22.3833H21.849C21.959 22.3853 22.049 22.2933 22.049 22.1853Z" fill="white"/>
</g>
<defs>
<clipPath id="clip0">
<rect width="40" height="40" fill="white"/>
</clipPath>
</defs>
</svg>
