<svg width="40" height="40" viewBox="0 0 40 40" fill="none" xmlns="http://www.w3.org/2000/svg">
<path d="M19.9978 39.9957C31.0423 39.9957 39.9957 31.0423 39.9957 19.9978C39.9957 8.95334 31.0423 0 19.9978 0C8.95334 0 0 8.95334 0 19.9978C0 31.0423 8.95334 39.9957 19.9978 39.9957Z" fill="url(#paint0_linear)"/>
<path d="M13.4109 15.0259C13.251 14.8275 13.0085 14.7172 12.7494 14.7172H7.40823C7.36414 14.7172 7.32555 14.7007 7.29248 14.6731C7.26492 14.6456 7.24838 14.6125 7.24838 14.5739V10.9745C7.24838 10.9359 7.26492 10.9029 7.29248 10.8753C7.32555 10.8422 7.36414 10.8257 7.40823 10.8312H13.0526C14.4747 10.8312 15.7039 11.4155 16.7402 12.5785L18.1127 14.2542L15.4393 17.5119L13.4109 15.0259ZM23.2775 12.562C24.3083 11.41 25.543 10.8312 26.9816 10.8312H32.6095C32.6481 10.8257 32.6866 10.8422 32.7142 10.8643C32.7418 10.8918 32.7528 10.9304 32.7473 10.9745V14.5739C32.7473 14.6125 32.7363 14.6456 32.7142 14.6731C32.6866 14.7062 32.6481 14.7227 32.6095 14.7172H27.2683C27.0147 14.7117 26.7722 14.8275 26.6068 15.0259L22.6712 19.8159L26.6234 24.639C26.7832 24.8209 27.0202 24.9311 27.2628 24.9256H32.604C32.6426 24.9201 32.6866 24.9421 32.7087 24.9697C32.7307 25.0028 32.7473 25.0469 32.7418 25.0855V28.6848C32.7418 28.7234 32.7307 28.7565 32.7087 28.7841C32.6811 28.8171 32.6426 28.8337 32.604 28.8282H26.9816C25.543 28.8282 24.3193 28.2439 23.2941 27.0808L20.0199 23.0846L16.7457 27.0808C15.7149 28.2439 14.4802 28.8282 13.0416 28.8282H7.40823C7.36965 28.8337 7.32555 28.8116 7.3035 28.7841C7.27594 28.751 7.26492 28.7069 7.27043 28.6683V25.0689C7.27043 25.0303 7.28146 24.9973 7.3035 24.9697C7.33106 24.9366 7.36965 24.9201 7.40823 24.9256H12.7494C13.003 24.9256 13.2455 24.8098 13.4109 24.6169L17.2749 19.8986L23.2775 12.562Z" fill="#00D1FF"/>
<defs>
<linearGradient id="paint0_linear" x1="20.0006" y1="-0.000115754" x2="20.0006" y2="10.5831" gradientUnits="userSpaceOnUse">
<stop stop-color="#090220"/>
<stop offset="1" stop-color="#170659"/>
</linearGradient>
</defs>
</svg>
