<svg width="40" height="40" viewBox="0 0 40 40" fill="none" xmlns="http://www.w3.org/2000/svg">
<g clip-path="url(#clip0)">
<path d="M30.7263 6.74995C28.7036 6.74995 26.9635 7.55088 25.4797 9.20213L21.7652 13.7499H28.4632L29.7071 12.236L29.7132 12.2293C29.8907 12.0175 30.1129 11.8475 30.3638 11.7317C30.6147 11.6158 30.8882 11.5569 31.1646 11.5592H38.1353C37.3204 9.8126 36.2576 8.19282 34.9799 6.74995H30.7263Z" fill="url(#paint0_linear)"/>
<path d="M8.86832 11.559C9.14474 11.5568 9.41823 11.6157 9.6692 11.7316C9.92017 11.8474 10.1424 12.0174 10.32 12.2292L10.3264 12.2365L11.5629 13.7499H14.4422L16.3485 11.4229L14.5516 9.22885C13.0672 7.55776 11.3357 6.74995 9.33426 6.74995H5.02036C3.74227 8.19269 2.67922 9.81242 1.86411 11.559H8.86832Z" fill="url(#paint1_linear)"/>
<path d="M29.7516 27.7832L29.7394 27.7704L28.4942 26.2499H21.803L25.5091 30.772C26.9746 32.4413 28.7049 33.2499 30.7264 33.2499H34.98C36.2644 31.7993 37.3316 30.17 38.1483 28.4129H31.1639C30.8973 28.4144 30.6334 28.359 30.3898 28.2504C30.1463 28.1419 29.9287 27.9826 29.7516 27.7832Z" fill="url(#paint2_linear)"/>
<path d="M9.30721 33.2499C11.3285 33.2499 13.0685 32.4412 14.5532 30.7707L18.2585 26.2499H11.5433L10.3211 27.7423L10.3085 27.7557C10.1287 27.9607 9.90737 28.1253 9.65924 28.2384C9.41111 28.3515 9.14179 28.4107 8.86909 28.412H1.85175C2.66827 30.1695 3.73566 31.7991 5.0205 33.2499H9.30721Z" fill="url(#paint3_linear)"/>
<path d="M25.0639 31.1495L20.5708 25.6665H28.7705L30.1796 27.3868C30.3021 27.5271 30.4535 27.6394 30.6234 27.7159C30.7933 27.7923 30.9776 27.8312 31.1639 27.83H38.408C39.4602 25.3485 40.0015 22.6803 39.9994 19.985C39.9974 17.2896 39.452 14.6223 38.396 12.1424H31.1646C30.9714 12.1402 30.7801 12.1814 30.605 12.2628C30.4298 12.3443 30.2751 12.4639 30.1522 12.6131L28.7391 14.3334H20.536L25.0369 8.82292C26.6236 7.05208 28.5202 6.16667 30.7267 6.16667H34.4439C32.5771 4.21729 30.3351 2.66597 27.8528 1.60617C25.3705 0.54636 22.6993 0 20.0003 0C17.3012 0 14.6301 0.54636 12.1478 1.60617C9.66546 2.66597 7.42338 4.21729 5.55659 6.16667H9.33425C11.5225 6.16667 13.41 7.06125 14.9969 8.85042L17.1033 11.4232L14.7188 14.3332H11.2866L9.88128 12.6129C9.75844 12.4638 9.60373 12.3441 9.42854 12.2627C9.25335 12.1812 9.06212 12.1401 8.86894 12.1423H1.60331C0.54722 14.6221 0.00182189 17.2894 -0.000298966 19.9848C-0.00241982 22.6801 0.53878 25.3483 1.59097 27.8298H8.86909C9.06169 27.8284 9.25175 27.7857 9.4264 27.7045C9.60105 27.6233 9.75623 27.5055 9.88144 27.3592L11.2671 25.6673H19.4907L14.9969 31.1495C13.4102 32.9389 11.5136 33.8334 9.30706 33.8332H5.55706C7.42385 35.7826 9.66593 37.3339 12.1482 38.3937C14.6305 39.4535 17.3017 39.9999 20.0007 39.9999C22.6998 39.9999 25.3709 39.4535 27.8532 38.3937C30.3355 37.3339 32.5776 35.7826 34.4444 33.8332H30.7272C28.5201 33.8332 26.6324 32.9386 25.0639 31.1495Z" fill="url(#paint4_linear)"/>
<path d="M25.0366 8.82291L20.5355 14.3335H28.7386L30.1519 12.6132C30.2747 12.4641 30.4294 12.3444 30.6046 12.2629C30.7798 12.1815 30.971 12.1404 31.1642 12.1426H38.3963C38.3123 11.9463 38.2251 11.7519 38.1347 11.5593H31.1646C30.8881 11.5571 30.6147 11.616 30.3637 11.7319C30.1127 11.8477 29.8904 12.0177 29.7128 12.2295L29.7071 12.2362L28.4631 13.7501H21.7656L25.4797 9.20229C26.9641 7.55104 28.7036 6.7501 30.7263 6.7501H34.9796C34.8047 6.55218 34.626 6.35775 34.4436 6.16682H30.7263C28.5199 6.16671 26.6234 7.05208 25.0366 8.82291Z" fill="#00D1FF"/>
<path d="M30.7264 33.2501C28.7052 33.2501 26.9749 32.4414 25.5088 30.7721L21.803 26.2501H28.4943L29.7394 27.7704L29.7516 27.7832C29.9288 27.9827 30.1464 28.1421 30.3901 28.2507C30.6338 28.3593 30.8978 28.4147 31.1646 28.4131H38.1478C38.2375 28.2202 38.3244 28.0259 38.4085 27.8303H31.1646C30.9783 27.8315 30.7939 27.7926 30.624 27.7161C30.4541 27.6397 30.3028 27.5274 30.1802 27.3871L28.7705 25.6665H20.5708L25.0633 31.1493C26.6316 32.9389 28.5191 33.8337 30.7258 33.8337H34.4432C34.626 33.6427 34.8046 33.4482 34.9791 33.2503L30.7264 33.2501Z" fill="#00D1FF"/>
<path d="M9.88145 12.6131L11.2868 14.3334H14.719L17.1035 11.4232L14.9971 8.85042C13.4104 7.06126 11.5229 6.16667 9.33442 6.16667H5.55645C5.37374 6.3573 5.1951 6.55172 5.02051 6.74995H9.33442C11.3357 6.74995 13.0672 7.55777 14.5532 9.22886L16.35 11.4229L14.4438 13.75H11.5635L10.3271 12.2365L10.3207 12.2292C10.1431 12.0174 9.9208 11.8474 9.66983 11.7316C9.41885 11.6157 9.14537 11.5568 8.86895 11.559H1.86489C1.77466 11.752 1.68757 11.9465 1.60364 12.1423H8.86926C9.06243 12.1401 9.25363 12.1813 9.4288 12.2628C9.60396 12.3443 9.75864 12.464 9.88145 12.6131Z" fill="#00D1FF"/>
<path d="M14.9969 31.1493L19.4907 25.6665H11.2669L9.88128 27.3584C9.75609 27.5048 9.60091 27.6225 9.42626 27.7037C9.2516 27.7849 9.06154 27.8277 8.86894 27.829H1.59113C1.67472 28.0256 1.76206 28.2196 1.85175 28.4125H8.86909C9.14179 28.4112 9.41111 28.352 9.65924 28.2389C9.90737 28.1258 10.1287 27.9612 10.3085 27.7562L10.3211 27.7428L11.5433 26.2504H18.2585L14.5532 30.7714C13.0688 32.4418 11.3285 33.2506 9.30722 33.2506H5.02034C5.19545 33.4485 5.37409 33.643 5.55628 33.834H9.30628C11.5135 33.8338 13.4103 32.9389 14.9969 31.1493Z" fill="#00D1FF"/>
<path d="M10.2007 20.1199C10.178 20.4881 10.3015 20.8503 10.5444 21.1279C10.7791 21.3681 11.1228 21.4879 11.5757 21.4873C11.7587 21.4979 11.9419 21.4707 12.114 21.4074C12.286 21.3441 12.4432 21.246 12.5757 21.1193C12.7016 20.9863 12.7991 20.829 12.8624 20.6571C12.9256 20.4852 12.9533 20.3022 12.9436 20.1193V17.1914H14.9914V20.3673C15.0036 20.8738 14.8643 21.3723 14.5914 21.7992C14.3089 22.2218 13.9043 22.5483 13.4314 22.7351C12.8411 22.9683 12.2098 23.0799 11.5753 23.0632C10.9409 23.0799 10.3097 22.9683 9.71941 22.7351C9.2426 22.5478 8.83568 22.217 8.55483 21.7886C8.27398 21.3601 8.13303 20.855 8.15144 20.3431V17.1914H10.1994L10.2007 20.1199Z" fill="white"/>
<path d="M19.7791 23.064C19.0648 23.0675 18.3545 22.9567 17.6752 22.7359C17.114 22.5686 16.5954 22.2821 16.155 21.896L17.4749 20.744C17.7974 21.0254 18.1654 21.2499 18.5632 21.4081C18.9879 21.5784 19.4414 21.6653 19.8989 21.6642C20.7311 21.6642 21.1472 21.5121 21.1471 21.2079C21.1496 21.1602 21.1381 21.1127 21.1139 21.0715C21.0897 21.0303 21.0539 20.9971 21.011 20.976C20.8578 20.9044 20.6919 20.8636 20.523 20.856L18.8272 20.6564C18.0963 20.5654 17.5549 20.3787 17.203 20.0964C16.8563 19.8082 16.683 19.3922 16.683 18.8482C16.676 18.483 16.8074 18.1286 17.051 17.8564C17.3492 17.5504 17.7255 17.3319 18.1389 17.2243C18.6951 17.0637 19.2724 16.9881 19.8511 17.0001C20.4631 16.9961 21.0732 17.0686 21.6672 17.2159C22.1963 17.3387 22.698 17.5585 23.1471 17.864L22.0191 19.064C21.7317 18.8309 21.3995 18.6593 21.0432 18.5598C20.6207 18.4301 20.181 18.3654 19.7391 18.3678C19.4763 18.3563 19.2135 18.3915 18.963 18.4718C18.7873 18.5359 18.6993 18.6319 18.6991 18.7599C18.6972 18.8116 18.7106 18.8627 18.7376 18.9068C18.7647 18.9509 18.8042 18.986 18.8511 19.0078C19.0381 19.0801 19.2351 19.1233 19.4352 19.1359L20.8991 19.2799C21.3527 19.316 21.7994 19.4128 22.2272 19.5678C22.5241 19.6663 22.7818 19.8569 22.963 20.1118C23.1271 20.381 23.2079 20.6927 23.1952 21.0078C23.1952 21.664 22.8938 22.1707 22.291 22.5279C21.694 22.8854 20.8567 23.0641 19.7791 23.064Z" fill="white"/>
<path d="M28.7939 17.1914C29.4173 17.1756 30.0375 17.2844 30.6183 17.5112C31.0959 17.6971 31.506 18.0234 31.7944 18.4471C32.0756 18.8914 32.2176 19.4096 32.2021 19.9351C32.2121 20.4759 32.0617 21.0076 31.7699 21.4631C31.4696 21.9164 31.0485 22.2767 30.5541 22.5031C29.9861 22.7579 29.3687 22.8836 28.7463 22.871H24.978V17.1914H28.7939ZM28.4096 21.5439C28.6265 21.5563 28.8437 21.5252 29.0484 21.4524C29.2531 21.3796 29.4412 21.2665 29.6016 21.12C29.7506 20.9705 29.8668 20.7915 29.9426 20.5944C30.0183 20.3974 30.0521 20.1867 30.0416 19.9759C30.0527 19.7765 30.0197 19.5771 29.945 19.3918C29.8703 19.2066 29.7557 19.0401 29.6094 18.9042C29.2896 18.6313 28.8776 18.491 28.4577 18.512H27.0258V21.5432L28.4096 21.5439Z" fill="white"/>
</g>
<defs>
<linearGradient id="paint0_linear" x1="29.9503" y1="40.168" x2="29.9503" y2="-18.3171" gradientUnits="userSpaceOnUse">
<stop stop-color="#08021E"/>
<stop offset="1" stop-color="#1F0777"/>
</linearGradient>
<linearGradient id="paint1_linear" x1="9.10629" y1="40.168" x2="9.10629" y2="-18.3171" gradientUnits="userSpaceOnUse">
<stop stop-color="#08021E"/>
<stop offset="1" stop-color="#1F0777"/>
</linearGradient>
<linearGradient id="paint2_linear" x1="29.9757" y1="40.1659" x2="29.9757" y2="-18.319" gradientUnits="userSpaceOnUse">
<stop stop-color="#08021E"/>
<stop offset="1" stop-color="#1F0777"/>
</linearGradient>
<linearGradient id="paint3_linear" x1="10.0551" y1="40.1659" x2="10.0551" y2="-18.319" gradientUnits="userSpaceOnUse">
<stop stop-color="#08021E"/>
<stop offset="1" stop-color="#1F0777"/>
</linearGradient>
<linearGradient id="paint4_linear" x1="19.9996" y1="40.1599" x2="19.9996" y2="-18.32" gradientUnits="userSpaceOnUse">
<stop stop-color="#08021E"/>
<stop offset="1" stop-color="#1F0777"/>
</linearGradient>
<clipPath id="clip0">
<rect width="40" height="40" fill="white"/>
</clipPath>
</defs>
</svg>
