<svg width="40" height="40" viewBox="0 0 40 40" fill="none" xmlns="http://www.w3.org/2000/svg">
<circle cx="20" cy="20" r="20" fill="white"/>
<g clip-path="url(#clip0)">
<path d="M13 10.2999L31.6 22.9999L27 29.7999L8.39999 16.9999L13 10.2999Z" fill="url(#paint0_linear)"/>
<path d="M31.6 23C30 25.3 24.6 24.4 19.5 20.8C14.3 17.3 11.5 12.6 13 10.3C14.6 7.99998 20 8.89998 25.1 12.5C30.3 15.9 33.1 20.7 31.6 23Z" fill="url(#paint1_linear)"/>
<path d="M27 29.7C25.4 32 20 31.1 14.9 27.5C9.80001 23.9 6.90001 19.3 8.50001 16.9C10.1 14.6 15.5 15.5 20.6 19.1C25.7 22.7 28.5 27.4 27 29.7Z" fill="url(#paint2_linear)"/>
<path d="M31.6 23L27 29.8C25.4 32.1 20 31.1 14.9 27.6C13.9 26.9 13 26.2 12.1 25.4C12.8 25.3 13.7 24.9 14.6 23.9C16.2 22.2 17 21.8 17.7 21.9C18.4 21.9 19.2 22.6 20.5 24.3C21.8 26 23.6 26.5 24.7 25.6C24.8 25.5 24.9 25.5 25 25.4C25.9 24.7 26.2 24.4 27.9 21.2C28.3 20.4 29.7 19.1 31.6 19.7C32.1 21 32.1 22.1 31.6 23Z" fill="#0E0F23"/>
<path fill-rule="evenodd" clip-rule="evenodd" d="M30.9 22.6C29.5 24.6 24.6 23.6 19.9 20.3C15.1 17 12.3 12.8 13.7 10.8C15.1 8.80003 20 9.80003 24.7 13.1C29.4 16.4 32.2 20.6 30.9 22.6ZM26.5 19.6C25.8 20.6 23.4 20.1 21 18.5C18.7 16.9 17.3 14.8 18 13.8C18.7 12.8 21.1 13.3 23.5 14.9C25.8 16.5 27.2 18.6 26.5 19.6Z" fill="white"/>
<path d="M12.6 12.5999C12.6 12.4999 12.5 12.3999 12.4 12.4999C12.3 12.5999 12.2 12.5999 12.2 12.6999C12.3 12.9999 12.4 13.1999 12.4 13.3999C12.4 13.4999 12.5 13.5999 12.6 13.4999C12.7 13.4999 12.8 13.3999 12.7 13.2999C12.7 13.0999 12.7 12.8999 12.6 12.5999Z" fill="white"/>
<path d="M13.1 14.2C13.1 14.1 13 14 12.9 14.1C12.8 14.2 12.8 14.2 12.8 14.3C13.9 16.8 16.2 19.5 19.2 21.5C19.3 21.6 19.4 21.5 19.5 21.5C19.6 21.4 19.5 21.3 19.5 21.2C16.4 19.2 14.2 16.6 13.1 14.2Z" fill="white"/>
<path d="M25.2 24C25.1 24 25 24 25 24.1C25 24.2 25 24.3 25.1 24.3C25.4 24.4 25.8 24.5 26.1 24.6C26.2 24.6 26.3 24.6 26.3 24.5C26.3 24.4 26.3 24.3 26.2 24.3C25.9 24.2 25.5 24.1 25.2 24Z" fill="white"/>
<path d="M27 24.4C26.9 24.4 26.8 24.5 26.8 24.6C26.8 24.7 26.9 24.8 27 24.8C27.8 24.9 28.7 25 29.4 24.9C29.5 24.9 29.6 24.8 29.6 24.7C29.6 24.6 29.5 24.5 29.4 24.5C28.6 24.6 27.8 24.5 27 24.4Z" fill="white"/>
</g>
<defs>
<linearGradient id="paint0_linear" x1="16.6442" y1="8.49423" x2="20.3328" y2="21.1604" gradientUnits="userSpaceOnUse">
<stop stop-color="#03B8FF"/>
<stop offset="1" stop-color="#FA52A0"/>
</linearGradient>
<linearGradient id="paint1_linear" x1="19.6818" y1="7.60958" x2="23.3705" y2="20.2759" gradientUnits="userSpaceOnUse">
<stop stop-color="#03B8FF"/>
<stop offset="1" stop-color="#FA52A0"/>
</linearGradient>
<linearGradient id="paint2_linear" x1="13.616" y1="9.37605" x2="17.3047" y2="22.0424" gradientUnits="userSpaceOnUse">
<stop stop-color="#03B8FF"/>
<stop offset="1" stop-color="#FA52A0"/>
</linearGradient>
<clipPath id="clip0">
<rect width="24" height="24" fill="white" transform="translate(8 8)"/>
</clipPath>
</defs>
</svg>
