<svg width="40" height="40" viewBox="0 0 40 40" fill="none" xmlns="http://www.w3.org/2000/svg">
<path d="M20 40C9 40 0 31 0 20C0 9 9 0 20 0C31 0 40 9 40 20C40 31 31 40 20 40Z" fill="#002868"/>
<path d="M30.08 32H9.92C8.864 32 8 31.136 8 30.08V9.92C8 8.864 8.864 8 9.92 8H30.08C31.136 8 32 8.864 32 9.92V30.08C32 31.136 31.136 32 30.08 32Z" fill="white"/>
<path d="M12.6828 29.584C12.6196 29.584 12.5684 29.5264 12.5684 29.4632V26.2384C12.5684 26.1752 12.5172 26.1176 12.454 26.1176H11.3156C11.2516 26.1176 11.1948 26.0664 11.1948 26.0032V25.38C11.1948 25.3168 11.2524 25.2592 11.3156 25.2592H14.8196C14.8828 25.2592 14.9404 25.316 14.9404 25.38V26.0032C14.9404 26.0664 14.8828 26.1176 14.8196 26.1176H13.6876C13.6244 26.1176 13.5668 26.1744 13.5668 26.2384V29.4632C13.5668 29.5264 13.5156 29.584 13.4524 29.584H12.6828Z" fill="#002868"/>
<path d="M18.4376 25.38C18.4376 25.3168 18.4888 25.2592 18.552 25.2592H19.3152C19.3784 25.2592 19.436 25.316 19.436 25.38V27.5808C19.436 28.8848 18.6984 29.6416 17.528 29.6416C16.364 29.6416 15.6328 28.8848 15.6328 27.5808V25.38C15.6328 25.3168 15.684 25.2592 15.7472 25.2592H16.5104C16.5736 25.2592 16.6312 25.316 16.6312 25.38V27.612C16.6312 28.2544 16.9616 28.712 17.5344 28.712C18.1072 28.712 18.4376 28.2544 18.4376 27.612V25.38Z" fill="#002868"/>
<path d="M22.9411 26.6712C22.8395 26.6712 22.8075 26.6328 22.7691 26.5568C22.6355 26.2448 22.3427 26.048 21.8979 26.048C21.4971 26.048 21.1603 26.188 21.1603 26.4552C21.1603 26.748 21.4723 26.8688 22.1587 26.9512C23.2019 27.072 23.7995 27.3904 23.7995 28.2168C23.7995 29.1456 22.9851 29.6352 21.9427 29.6352C21.0395 29.6352 20.2635 29.196 20.1427 28.2744C20.1299 28.1856 20.1747 28.1536 20.2635 28.1536H20.9635C21.0523 28.1536 21.1035 28.192 21.1291 28.2616C21.2243 28.5672 21.5491 28.8024 22.0195 28.8024C22.4331 28.8024 22.7955 28.6496 22.7955 28.3256C22.7955 27.9376 22.4139 27.868 21.6507 27.772C20.7731 27.6576 20.1627 27.4032 20.1627 26.5952C20.1627 25.7872 20.8563 25.2088 21.9435 25.2088C22.9227 25.2088 23.6035 25.7368 23.7435 26.5256C23.7627 26.6144 23.7371 26.672 23.6419 26.672H22.9411V26.6712Z" fill="#002868"/>
<path d="M24.664 29.584C24.6008 29.584 24.5496 29.5264 24.5496 29.4632V25.38C24.5496 25.3168 24.6008 25.2592 24.664 25.2592H26.3936C27.6784 25.2592 28.6768 26.1432 28.6768 27.4344C28.6768 28.7064 27.6912 29.584 26.3936 29.584H24.664ZM26.3936 28.7248C27.0872 28.7248 27.6272 28.1776 27.6272 27.4208C27.6272 26.664 27.0864 26.1168 26.3872 26.1168H25.6688C25.6056 26.1168 25.5544 26.1736 25.5544 26.2376V28.6096C25.5544 28.6728 25.6056 28.724 25.6688 28.724H26.3936V28.7248Z" fill="#002868"/>
<path d="M31.36 22.88H8.64001C8.46401 22.88 8.32001 22.736 8.32001 22.56V9.92001C8.32001 9.04001 9.04001 8.32001 9.92001 8.32001H30.08C30.96 8.32001 31.68 9.04001 31.68 9.92001V22.56C31.68 22.736 31.536 22.88 31.36 22.88Z" fill="#002868"/>
<path d="M21.178 20.2848H19.098C18.966 20.2848 18.858 20.1768 18.858 20.0448V11.2448C18.858 11.1128 18.966 11.0048 19.098 11.0048H21.178C21.31 11.0048 21.418 11.1128 21.418 11.2448V20.0448C21.418 20.1768 21.31 20.2848 21.178 20.2848Z" fill="white"/>
<path d="M24.72 13.5648H15.28C15.148 13.5648 15.04 13.4568 15.04 13.3248V11.2448C15.04 11.1128 15.148 11.0048 15.28 11.0048H24.72C24.852 11.0048 24.96 11.1128 24.96 11.2448V13.3248C24.96 13.4568 24.852 13.5648 24.72 13.5648Z" fill="white"/>
</svg>
