<svg width="40" height="40" viewBox="0 0 40 40" fill="none" xmlns="http://www.w3.org/2000/svg">
<circle cx="20" cy="20" r="20" fill="white"/>
<g clip-path="url(#clip0)">
<path d="M23.942 24.0055H22.7561C22.5365 24.0055 22.3498 23.8298 22.3498 23.5992V20.4808L20.2745 21.7765C20.0988 21.8863 19.8792 21.8863 19.7035 21.7765L17.6392 20.4808V23.5992C17.6392 23.8188 17.4635 24.0055 17.233 24.0055H16.0581C15.8384 24.0055 15.6518 23.8298 15.6518 23.5992V17.582C15.6518 17.2855 15.8933 17.0439 16.1898 17.0439C16.2996 17.0439 16.3984 17.0769 16.4863 17.1428L19.7584 19.3937C19.8902 19.4926 20.0769 19.4926 20.2086 19.3937L23.4808 17.1428C23.7224 16.9781 24.0628 17.0439 24.2275 17.2855C24.2933 17.3734 24.3153 17.4832 24.3263 17.582V23.5992C24.3373 23.8188 24.1616 24.0055 23.942 24.0055Z" fill="#FF4A4A"/>
<path d="M13.8855 23.9945H6.52864C6.23217 23.9945 5.9906 23.7529 5.9906 23.4565V17.4063C6.00158 17.1757 6.17727 17 6.40786 17H7.59374C7.81335 17 8.00001 17.1757 8.00001 17.4063V22.0071H12.4581V17.4063C12.4581 17.1867 12.6337 17 12.8643 17H14.0173C14.2369 17 14.4235 17.1757 14.4235 17.4063V23.4565C14.4235 23.7529 14.182 23.9945 13.8855 23.9945Z" fill="#FF4A4A"/>
<path d="M26.1161 17H33.473C33.7694 17 34.011 17.2416 34.011 17.538V23.5882C34.011 23.8078 33.8353 23.9945 33.6157 23.9945H32.4298C32.2102 23.9945 32.0236 23.8188 32.0236 23.5882V19.251C32.0236 19.1082 31.9028 18.9875 31.76 18.9875H27.84C27.6973 18.9875 27.5765 19.1082 27.5765 19.251V23.5882C27.5765 23.8078 27.4008 23.9945 27.1702 23.9945H25.9843C25.7647 23.9945 25.5781 23.8188 25.5781 23.5882V17.538C25.5781 17.2416 25.8196 17 26.1161 17Z" fill="#FF4A4A"/>
<path d="M29.2016 20.2612H30.3765C30.5961 20.2612 30.7828 20.4369 30.7828 20.6675V21.8644C30.7828 22.084 30.6071 22.2706 30.3765 22.2706H29.2016C28.982 22.2706 28.7953 22.095 28.7953 21.8644V20.6565C28.7953 20.4369 28.982 20.2612 29.2016 20.2612Z" fill="#FF4A4A"/>
</g>
<defs>
<clipPath id="clip0">
<rect width="28" height="7.00549" fill="white" transform="translate(6 17)"/>
</clipPath>
</defs>
</svg>
