<svg width="40" height="40" viewBox="0 0 40 40" fill="none" xmlns="http://www.w3.org/2000/svg">
<circle cx="20" cy="20" r="20" fill="white"/>
<g clip-path="url(#clip0)">
<path d="M18.1734 13.4613C17.9133 13.4241 17.9009 13.4118 18.0248 13.3994C18.2601 13.3622 18.8049 13.4118 19.1888 13.4985C20.0805 13.709 20.8854 14.2539 21.7399 15.2074L21.9628 15.4675L22.2848 15.418C23.6594 15.195 25.0712 15.3684 26.2477 15.9133C26.5697 16.0619 27.0774 16.3591 27.1393 16.4334C27.1641 16.4582 27.2012 16.6192 27.226 16.7802C27.3127 17.3622 27.2755 17.7957 27.0898 18.13C26.9907 18.3158 26.9907 18.3653 27.0526 18.5263C27.1022 18.6502 27.2508 18.7368 27.387 18.7368C27.6842 18.7368 27.9938 18.2663 28.1424 17.6099L28.2043 17.3498L28.3158 17.4737C28.9474 18.1796 29.4427 19.1579 29.517 19.8514L29.5418 20.0372L29.4303 19.8762C29.2446 19.5913 29.0712 19.4056 28.8359 19.2446C28.4149 18.9598 27.969 18.8731 26.7926 18.8111C25.7275 18.7492 25.1207 18.6625 24.5263 18.4644C23.5108 18.13 22.9907 17.6966 21.7895 16.0991C21.257 15.3932 20.9226 15.0093 20.5882 14.6873C19.8576 13.9814 19.1269 13.6099 18.1734 13.4613Z" fill="#FF007A"/>
<path d="M27.3994 15.034C27.4242 14.5634 27.4861 14.2538 27.6223 13.969C27.6718 13.8576 27.7214 13.7585 27.7338 13.7585C27.7461 13.7585 27.7214 13.8452 27.6842 13.9442C27.5851 14.2167 27.5728 14.6006 27.6347 15.034C27.7214 15.5913 27.7585 15.6656 28.3529 16.2724C28.6254 16.5572 28.9474 16.9164 29.0712 17.065L29.2817 17.3374L29.0712 17.1393C28.8112 16.8916 28.2167 16.421 28.0805 16.3591C27.9938 16.3096 27.9814 16.3096 27.9195 16.3715C27.87 16.421 27.8576 16.4953 27.8576 16.8545C27.8452 17.4117 27.7709 17.7585 27.5851 18.1176C27.4861 18.3034 27.4737 18.2662 27.5604 18.0557C27.6223 17.8947 27.6347 17.8204 27.6347 17.2879C27.6347 16.2105 27.5108 15.9504 26.7554 15.517C26.5697 15.4055 26.2477 15.2446 26.0619 15.1579C25.8638 15.0712 25.7152 14.9969 25.7276 14.9969C25.7523 14.9721 26.483 15.1826 26.7678 15.3065C27.2012 15.4798 27.2755 15.4922 27.3251 15.4798C27.3622 15.4427 27.387 15.3436 27.3994 15.034Z" fill="#FF007A"/>
<path d="M18.6811 16.8793C18.161 16.161 17.8266 15.0464 17.9009 14.2167L17.9257 13.9567L18.0495 13.9814C18.2724 14.0186 18.6563 14.1672 18.8421 14.2786C19.3375 14.5759 19.5604 14.9845 19.7709 16C19.8328 16.2972 19.9195 16.644 19.9567 16.7554C20.0186 16.9412 20.2539 17.3746 20.452 17.6471C20.5882 17.8452 20.5016 17.9443 20.192 17.9195C19.7214 17.87 19.0898 17.4365 18.6811 16.8793Z" fill="#FF007A"/>
<path d="M26.7678 22.2663C24.3158 21.2756 23.4489 20.4211 23.4489 18.9722C23.4489 18.7616 23.4613 18.5883 23.4613 18.5883C23.4737 18.5883 23.5604 18.6626 23.6718 18.7492C24.1672 19.1455 24.7245 19.3189 26.2724 19.5418C27.1765 19.678 27.6966 19.7771 28.1672 19.9381C29.6656 20.4335 30.5944 21.4489 30.8173 22.8236C30.8793 23.2198 30.8421 23.9753 30.743 24.3715C30.6563 24.6811 30.4087 25.2508 30.3467 25.2632C30.3344 25.2632 30.3096 25.2013 30.3096 25.1022C30.2848 24.5821 30.0248 24.0867 29.5913 23.7028C29.0712 23.257 28.4025 22.9226 26.7678 22.2663Z" fill="#FF007A"/>
<path d="M25.0341 22.6749C25.0093 22.4892 24.9474 22.2539 24.9102 22.1548L24.8483 21.9691L24.9598 22.1053C25.1207 22.291 25.2446 22.5139 25.356 22.8235C25.4427 23.0588 25.4427 23.1331 25.4427 23.517C25.4427 23.8886 25.4303 23.9752 25.356 24.1858C25.2322 24.5201 25.0836 24.7554 24.8359 25.0155C24.3901 25.4737 23.808 25.7214 22.9783 25.8328C22.8297 25.8452 22.4087 25.8824 22.0372 25.9071C21.1084 25.9567 20.4892 26.0557 19.9319 26.2539C19.8576 26.2787 19.7833 26.3034 19.7709 26.291C19.7461 26.2663 20.13 26.0434 20.4396 25.8948C20.8731 25.6842 21.3189 25.5728 22.2972 25.3994C22.7802 25.3251 23.2755 25.226 23.3994 25.1765C24.6254 24.7926 25.2322 23.839 25.0341 22.6749Z" fill="#FF007A"/>
<path d="M26.161 24.6687C25.839 23.9628 25.7647 23.2941 25.9381 22.6625C25.9629 22.6006 25.9876 22.5387 26.0124 22.5387C26.0372 22.5387 26.1115 22.5758 26.1858 22.6254C26.3344 22.7245 26.644 22.8978 27.4365 23.3313C28.4396 23.8762 29.0093 24.2972 29.4056 24.7802C29.7523 25.2012 29.9629 25.6842 30.0619 26.2786C30.1238 26.613 30.0867 27.418 30 27.7523C29.7276 28.805 29.1084 29.6471 28.2043 30.13C28.0681 30.2043 27.9567 30.2539 27.9443 30.2539C27.9319 30.2539 27.9814 30.13 28.0557 29.9814C28.3529 29.3499 28.3901 28.743 28.1672 28.0619C28.031 27.6409 27.7461 27.1331 27.1765 26.2786C26.4954 25.2879 26.3344 25.0279 26.161 24.6687Z" fill="#FF007A"/>
<path d="M16.935 28.4582C17.8514 27.6904 18.9783 27.1455 20.0186 26.9721C20.4644 26.8978 21.2074 26.9226 21.6161 27.034C22.2724 27.2074 22.8669 27.5789 23.1765 28.0371C23.4737 28.4829 23.6099 28.8668 23.7461 29.7213C23.7957 30.0557 23.8576 30.4024 23.87 30.4767C23.969 30.9226 24.1672 31.2693 24.4149 31.4551C24.7988 31.7399 25.4675 31.7523 26.1238 31.5046C26.2353 31.4675 26.3344 31.4303 26.3344 31.4427C26.3591 31.4675 26.0248 31.6904 25.8019 31.8018C25.4923 31.9628 25.2446 32.0124 24.9102 32.0124C24.3158 32.0124 23.8081 31.7028 23.3994 31.0836C23.3127 30.9597 23.1393 30.6006 22.9907 30.2662C22.5573 29.2631 22.3344 28.9659 21.8266 28.6315C21.3808 28.3467 20.8111 28.2848 20.3777 28.4953C19.8081 28.7678 19.6594 29.4984 20.0557 29.9442C20.2167 30.13 20.5139 30.2786 20.7616 30.3158C21.2198 30.3777 21.6161 30.0185 21.6161 29.5603C21.6161 29.2631 21.5046 29.0897 21.2074 28.9535C20.8111 28.7802 20.3777 28.9783 20.3901 29.3622C20.3901 29.5232 20.4644 29.6223 20.6254 29.6966C20.7245 29.7461 20.7245 29.7461 20.6502 29.7337C20.291 29.6594 20.2043 29.2136 20.4892 28.9288C20.8359 28.582 21.5666 28.7306 21.8142 29.2136C21.9133 29.4117 21.9257 29.808 21.839 30.0557C21.6285 30.6006 21.0341 30.8854 20.4272 30.7244C20.0186 30.613 19.8452 30.5015 19.3498 29.9938C18.483 29.1021 18.1486 28.9288 16.9102 28.743L16.6749 28.7058L16.935 28.4582Z" fill="#FF007A"/>
<path fill-rule="evenodd" clip-rule="evenodd" d="M10.4207 8.53251C13.3061 12.0372 17.752 17.4861 17.9749 17.7833C18.1606 18.031 18.0863 18.2663 17.7767 18.4396C17.6034 18.5387 17.2442 18.6378 17.0708 18.6378C16.8727 18.6378 16.6374 18.5387 16.4764 18.3777C16.365 18.2663 15.882 17.5604 14.7922 15.8638C13.9625 14.5635 13.2566 13.4861 13.2442 13.4737C13.1947 13.4489 13.1947 13.4489 14.7055 16.1486C15.6591 17.8452 15.9687 18.452 15.9687 18.5263C15.9687 18.6873 15.9191 18.774 15.721 18.9969C15.3866 19.3684 15.238 19.7895 15.1266 20.6687C15.0027 21.6471 14.6684 22.3406 13.7148 23.517C13.1575 24.2105 13.0708 24.3344 12.9346 24.6192C12.7612 24.9659 12.7117 25.1641 12.6869 25.6099C12.6622 26.0805 12.7117 26.3777 12.8479 26.8235C12.9718 27.2198 13.108 27.4799 13.4424 27.9876C13.7272 28.4334 13.9006 28.7678 13.9006 28.8916C13.9006 28.9907 13.9253 28.9907 14.3712 28.8916C15.4362 28.644 16.3154 28.2229 16.7984 27.7028C17.0956 27.3808 17.1699 27.2074 17.1699 26.7616C17.1699 26.4768 17.1575 26.4149 17.0832 26.2415C16.9594 25.969 16.7241 25.7461 16.2164 25.3994C15.5476 24.9412 15.2628 24.5697 15.1885 24.0743C15.1266 23.6533 15.2009 23.3684 15.5724 22.5882C15.9563 21.7833 16.0554 21.4489 16.1173 20.6316C16.1544 20.1115 16.2164 19.9009 16.365 19.7399C16.526 19.5666 16.6622 19.5046 17.0461 19.4551C17.6777 19.3684 18.0863 19.2074 18.4083 18.8978C18.6931 18.6378 18.817 18.3777 18.8294 17.9938L18.8417 17.709L18.6808 17.5356C18.0987 16.8669 10.0368 8 9.99964 8C9.98725 8 10.1854 8.23529 10.4207 8.53251ZM14.2225 26.1424C14.3588 25.9071 14.2845 25.6099 14.0616 25.4613C13.851 25.3251 13.529 25.387 13.529 25.5728C13.529 25.6223 13.5538 25.6718 13.6281 25.6966C13.7396 25.7585 13.752 25.8204 13.6653 25.9567C13.5786 26.0929 13.5786 26.2167 13.69 26.3034C13.8634 26.4396 14.0987 26.3653 14.2225 26.1424Z" fill="#FF007A"/>
<path fill-rule="evenodd" clip-rule="evenodd" d="M19.2384 19.6285C18.9412 19.7152 18.6564 20.0371 18.5697 20.3591C18.5201 20.5573 18.5449 20.9164 18.6316 21.0279C18.7678 21.2012 18.8916 21.2508 19.2384 21.2508C19.9195 21.2508 20.5016 20.9536 20.5635 20.5944C20.6254 20.2972 20.3653 19.8885 20.0062 19.7028C19.8204 19.6037 19.4365 19.5666 19.2384 19.6285ZM20.031 20.2477C20.13 20.0991 20.0929 19.9381 19.9071 19.8266C19.5728 19.6161 19.065 19.7895 19.065 20.1114C19.065 20.2724 19.3251 20.4458 19.5728 20.4458C19.7338 20.4458 19.9567 20.3467 20.031 20.2477Z" fill="#FF007A"/>
</g>
<defs>
<clipPath id="clip0">
<rect width="20.8421" height="24" fill="white" transform="translate(10 8)"/>
</clipPath>
</defs>
</svg>
