<svg width="40" height="40" viewBox="0 0 40 40" fill="none" xmlns="http://www.w3.org/2000/svg">
<path d="M20 40C31.0834 40 40 31.0834 40 20C40 8.9166 31.0834 0 20 0C8.9166 0 0 8.9166 0 20C0 31.0834 8.9166 40 20 40Z" fill="#2775CA"/>
<path d="M25.5 23.1666C25.5 20.25 23.75 19.25 20.25 18.8334C17.75 18.5 17.2501 17.8334 17.2501 16.6666C17.2501 15.4998 18.0834 14.7501 19.75 14.7501C21.25 14.7501 22.0834 15.25 22.5 16.5C22.5834 16.75 22.8334 16.9166 23.0834 16.9166H24.4166C24.75 16.9166 25 16.6666 25 16.3334V16.25C24.6666 14.4167 23.1666 13.0001 21.25 12.8335V10.8335C21.25 10.5001 21 10.2501 20.5834 10.1667H19.3334C19 10.1667 18.75 10.4167 18.6666 10.8335V12.7501C16.1667 13.0835 14.5835 14.75 14.5835 16.8334C14.5835 19.5834 16.2501 20.6666 19.75 21.0834C22.0834 21.5 22.8334 22 22.8334 23.3334C22.8334 24.6668 21.6666 25.5834 20.0834 25.5834C17.9166 25.5834 17.1667 24.6666 16.9167 23.4166C16.8335 23.0834 16.5835 22.9166 16.3335 22.9166H14.9167C14.5835 22.9166 14.3335 23.1666 14.3335 23.5V23.5834C14.6667 25.6666 16.0001 27.1666 18.75 27.5834V29.5834C18.75 29.9166 19 30.1666 19.4166 30.25H20.6666C21 30.25 21.25 30 21.3334 29.5834V27.5834C23.8334 27.1666 25.5 25.4166 25.5 23.1666Z" fill="white"/>
<path d="M15.7498 31.9166C9.24979 29.5834 5.91639 22.3334 8.33319 15.9166C9.58319 12.4166 12.3332 9.74997 15.7498 8.49997C16.0832 8.33337 16.2498 8.08337 16.2498 7.66657V6.49997C16.2498 6.16657 16.0832 5.91657 15.7498 5.83337C15.6664 5.83337 15.4998 5.83337 15.4164 5.91657C7.49979 8.41657 3.16639 16.8334 5.66639 24.75C7.16639 29.4166 10.7498 33 15.4164 34.5C15.7498 34.6666 16.0832 34.5 16.1664 34.1666C16.2498 34.0834 16.2498 34 16.2498 33.8334V32.6666C16.2498 32.4166 15.9998 32.0834 15.7498 31.9166ZM24.5832 5.91657C24.2498 5.74997 23.9164 5.91657 23.8332 6.24997C23.7498 6.33337 23.7498 6.41657 23.7498 6.58337V7.74997C23.7498 8.08337 23.9998 8.41657 24.2498 8.58337C30.7498 10.9166 34.0832 18.1666 31.6664 24.5834C30.4164 28.0834 27.6664 30.75 24.2498 32C23.9164 32.1666 23.7498 32.4166 23.7498 32.8334V34C23.7498 34.3334 23.9164 34.5834 24.2498 34.6666C24.3332 34.6666 24.4998 34.6666 24.5832 34.5834C32.4998 32.0834 36.8332 23.6666 34.3332 15.75C32.8332 11 29.1664 7.41657 24.5832 5.91657Z" fill="white"/>
</svg>
