<svg width="40" height="40" viewBox="0 0 40 40" fill="none" xmlns="http://www.w3.org/2000/svg">
<path d="M20 40C31.0457 40 40 31.0457 40 20C40 8.9543 31.0457 0 20 0C8.9543 0 0 8.9543 0 20C0 31.0457 8.9543 40 20 40Z" fill="#26A17B"/>
<path d="M22.132 21.8456V21.8424C21.9937 21.8521 21.2799 21.8939 19.6915 21.8939C18.4214 21.8939 17.5307 21.8585 17.2156 21.8424V21.8456C12.3313 21.6302 8.68823 20.7813 8.68823 19.762C8.68823 18.746 12.3345 17.8939 17.2156 17.6784V21C17.5339 21.0225 18.4503 21.0772 19.714 21.0772C21.2316 21.0772 21.9905 21.0128 22.132 21V17.6817C27.0066 17.9003 30.64 18.7492 30.64 19.7653C30.64 20.7813 27.0033 21.6302 22.132 21.8489V21.8456ZM22.132 17.3376V14.3665H28.9326V9.836H10.4181V14.3665H17.2188V17.3376C11.6914 17.5916 7.53711 18.6849 7.53711 19.9968C7.53711 21.3087 11.6947 22.4019 17.2188 22.6591V32.1833H22.1352V22.6591C27.6529 22.4051 31.8008 21.3119 31.8008 20C31.8008 18.6913 27.6529 17.5948 22.1352 17.3408" fill="white"/>
</svg>
