<svg width="40" height="40" viewBox="0 0 40 40" fill="none" xmlns="http://www.w3.org/2000/svg">
<path d="M20 40C31.0457 40 40 31.0457 40 20C40 8.9543 31.0457 0 20 0C8.9543 0 0 8.9543 0 20C0 31.0457 8.9543 40 20 40Z" fill="url(#paint0_linear)"/>
<path d="M21.732 20.2957C22.2797 20.6643 22.7476 20.9231 23.1478 21.2624C23.7102 21.7475 24.2479 22.2604 24.7587 22.7995C25.54 23.6101 25.8758 24.6249 26.0384 25.7171C26.3119 27.5537 25.8033 29.1337 24.6878 30.6154C23.1166 32.7026 19.6455 33.5109 17.5742 32.5607C16.4284 32.0349 15.393 31.3802 14.7245 30.3841C13.7041 28.864 13.0587 27.1745 13.8134 25.2877C14.0084 24.8001 14.1916 24.3073 14.3975 23.7721C13.6178 23.9284 12.847 24.0813 12.0717 24.2362C11.9384 23.7015 11.8061 23.2395 11.7205 22.7674C11.7275 22.699 11.752 22.6336 11.7917 22.5774C11.8313 22.5211 11.8847 22.476 11.9467 22.4463C13.6595 22.0838 15.3787 21.7513 17.0912 21.3884C17.3959 21.3234 17.4819 21.4134 17.515 21.6853C17.635 22.6606 17.7572 23.636 17.8923 24.6091C17.9931 25.3351 18.1011 26.061 18.2344 26.781C18.2903 27.0835 18.2226 27.2226 17.908 27.2498C17.4484 27.2891 16.9906 27.3495 16.5158 27.4032L16.0841 24.536C15.4434 25.6881 15.0139 26.7101 15.4522 27.911C15.802 28.8695 16.2891 29.749 17.1348 30.3215C18.4973 31.2446 19.9762 31.5002 21.5505 30.8348C22.4248 30.4888 23.1639 29.8695 23.6575 29.0691C23.9918 28.5473 24.2125 27.961 24.3053 27.3483C24.398 26.7355 24.3608 26.1101 24.1959 25.5127C23.8891 24.3782 23.2847 23.4763 22.2428 22.8721C21.9203 22.6846 21.6667 22.4013 21.7195 21.9304C21.775 21.4371 21.732 20.9321 21.732 20.2957Z" fill="white"/>
<path d="M25.7192 15.7999C26.4862 15.5396 27.1898 15.3015 27.9673 15.0375C28.1284 15.4997 28.3054 15.9289 28.4142 16.3749C28.4101 16.4592 28.3848 16.5412 28.3405 16.6131C28.2963 16.6851 28.2346 16.7447 28.1612 16.7864C26.6536 17.3659 25.1398 17.9284 23.6198 18.4739C22.9765 18.7068 22.9792 18.653 22.8073 17.995C22.4723 16.706 22.0783 15.4325 21.7104 14.1513C21.6098 13.8013 21.5161 13.4482 21.4056 13.0474C21.8971 12.8719 22.3992 12.7275 22.9089 12.615C23.0114 12.5967 23.2353 12.9286 23.3025 13.1327C23.4479 13.5742 23.5187 14.0389 23.6392 14.4899C23.6984 14.7127 23.8 14.9227 23.9131 15.2195C24.4092 14.3108 24.4468 13.4177 24.2967 12.5108C24.1932 11.8207 23.9244 11.1658 23.5132 10.602C23.102 10.0381 22.5606 9.58204 21.9351 9.27255C21.2464 8.92997 20.4855 8.75759 19.7164 8.76988C18.0747 8.79863 16.7806 9.59205 15.9084 10.9972C15.4309 11.7807 15.2138 12.6953 15.2882 13.6098C15.3626 14.5243 15.7247 15.3918 16.3225 16.0878C16.8116 16.6032 17.3512 17.0683 17.9329 17.4761C18.2204 17.6913 18.3626 17.9032 18.3501 18.2574C18.3315 18.7908 18.3453 19.3246 18.3453 19.9807C17.8708 19.6515 17.465 19.4039 17.0986 19.1083C16.417 18.5577 15.7339 18.005 15.0958 17.4061C14.1954 16.561 13.7833 15.444 13.6008 14.2627C13.2726 12.1377 13.9223 10.2791 15.4508 8.80082C17.0887 7.21613 19.0833 6.7227 21.3204 7.20708C22.9804 7.56645 24.2514 8.51955 25.1478 9.89892C26.0811 11.3364 26.3339 12.9588 25.9773 14.6541C25.9028 15.0125 25.8175 15.3663 25.7192 15.7999Z" fill="white"/>
<path d="M20.8881 11.7847V28.15C20.3658 28.15 19.8694 28.1581 19.3734 28.1467C19.014 28.1393 19.1234 27.8487 19.1234 27.6576C19.1178 25.0633 19.117 22.4688 19.1211 19.874C19.1211 17.3636 19.1317 14.8526 19.1123 12.3428C19.1089 11.907 19.2164 11.7323 19.6711 11.7772C20.0515 11.8147 20.4387 11.7847 20.8881 11.7847Z" fill="white"/>
<defs>
<linearGradient id="paint0_linear" x1="40" y1="21.08" x2="-1.1154e-06" y2="21.2" gradientUnits="userSpaceOnUse">
<stop stop-color="#075EB6"/>
<stop offset="1" stop-color="#0377FC"/>
</linearGradient>
</defs>
</svg>
