<svg width="40" height="40" viewBox="0 0 40 40" fill="none" xmlns="http://www.w3.org/2000/svg">
<path d="M20 40C31.0457 40 40 31.0457 40 20C40 8.9543 31.0457 0 20 0C8.9543 0 0 8.9543 0 20C0 31.0457 8.9543 40 20 40Z" fill="black"/>
<path d="M19.9998 35.5653C28.5957 35.5653 35.564 28.597 35.564 20.0011C35.564 11.4052 28.5957 4.43689 19.9998 4.43689C11.404 4.43689 4.43564 11.4052 4.43564 20.0011C4.43564 28.597 11.404 35.5653 19.9998 35.5653Z" fill="url(#paint0_linear)"/>
<path d="M12.5058 26.2021L17.9377 18.669C18.9261 17.3772 19.7043 16.4434 20.6848 15.276V15.1982H13.1051V10.5056H27.2062V14.0543L22.0233 21.276C21.0739 22.529 20.1868 23.7352 19.2062 24.7858V24.8636H27.4942V29.5873H12.5058V26.2021Z" fill="black"/>
<path d="M22.0779 7.02588H17.7744V11.2282H22.0779V7.02588Z" fill="black"/>
<path d="M22.0779 28.7706H17.7744V32.973H22.0779V28.7706Z" fill="black"/>
<defs>
<linearGradient id="paint0_linear" x1="31.0054" y1="8.99553" x2="8.99429" y2="31.0066" gradientUnits="userSpaceOnUse">
<stop stop-color="#FFD25C"/>
<stop offset="1" stop-color="#CD8421"/>
</linearGradient>
</defs>
</svg>
